<svg width="44" height="44" viewBox="0 0 44 44" fill="none" xmlns="http://www.w3.org/2000/svg">
<path d="M34.8333 11V9.16666H31.1667V7.33332H27.5V5.49999H25.6667V3.66666H18.3333V5.49999H16.5V7.33332H12.8333V9.16666H9.16667V11H5.5V27.5H7.33333V29.3333H9.16667V31.1667H11V33H12.8333V34.8333H14.6667V36.6667H16.5V38.5H18.3333V40.3333H25.6667V38.5H27.5V36.6667H29.3333V34.8333H31.1667V33H33V31.1667H34.8333V29.3333H36.6667V27.5H38.5V11H34.8333ZM34.8333 23.8333H33V27.5H31.1667V29.3333H29.3333V31.1667H27.5V33H25.6667V34.8333H18.3333V33H16.5V31.1667H14.6667V29.3333H12.8333V27.5H11V23.8333H9.16667V14.6667H12.8333V12.8333H16.5V11H20.1667V9.16666H23.8333V11H27.5V12.8333H31.1667V14.6667H34.8333V23.8333Z" fill="#EEE1C2"/>
<path d="M13 27V25.5H16V19.5H14.5V18H16V16.5H17.5V25.5H20.5V27H13ZM23.5 27V25.5H28V27H23.5ZM28 25.5V22.5H29.5V25.5H28ZM22 25.5V19.5H23.5V21H28V22.5H23.5V25.5H22ZM23.5 19.5V18H25V19.5H23.5ZM25 18V16.5H28V18H25Z" fill="#EEE1C2"/>
</svg>
