<svg width="175" height="190" viewBox="0 0 175 190" fill="none" xmlns="http://www.w3.org/2000/svg">
<path d="M164.116 74.8952L106.821 18.4313L31.201 39.2808L11.0634 114.436L65.9484 170.971L143.978 150.05L164.116 74.8952Z" fill="#EEE1C2" stroke="#120800" stroke-width="4.61756"/>
<path d="M98.7543 48.5378L121.228 134.154M98.7543 48.5378L164.116 74.8952M98.7543 48.5378L106.821 18.4313M98.7543 48.5378L31.201 39.2808M98.7543 48.5378L36.9295 111.566M121.228 134.154L164.116 74.8952M121.228 134.154L36.9295 111.566M121.228 134.154L65.9484 170.971M121.228 134.154L143.978 150.05M164.116 74.8952L106.821 18.4313M164.116 74.8952L143.978 150.05M106.821 18.4313L31.201 39.2808M143.978 150.05L65.9484 170.971M65.9484 170.971L11.0634 114.436M65.9484 170.971L36.9295 111.566M11.0634 114.436L31.201 39.2808M11.0634 114.436L36.9295 111.566M31.201 39.2808L36.9295 111.566" stroke="#120800" stroke-width="4.61756"/>
<path d="M79.4501 105.966L80.0972 103.551L87.3416 105.492L86.6945 107.907L79.4501 105.966ZM77.6823 102.904L78.3294 100.489L80.7442 101.136L80.0972 103.551L77.6823 102.904ZM87.3416 105.492L89.2827 98.2474L91.6976 98.8945L89.7564 106.139L87.3416 105.492ZM79.6235 95.6593L81.5646 88.4148L93.6387 91.6501L92.9916 94.0649L83.3324 91.4767L82.6853 93.8915L89.9298 95.8326L89.2827 98.2474L79.6235 95.6593Z" fill="#120800"/>
<path d="M118.511 85.5912L120.925 84.9441L122.867 92.1886L120.452 92.8356L118.511 85.5912ZM120.278 82.5293L125.108 81.2352L125.755 83.6501L120.925 84.9441L120.278 82.5293ZM122.867 92.1886L127.696 90.8945L128.343 93.3093L123.514 94.6034L122.867 92.1886ZM125.755 83.6501L128.17 83.003L130.111 90.2474L127.696 90.8945L125.755 83.6501ZM127.523 80.5882L132.352 79.2941L133 81.7089L128.17 83.003L127.523 80.5882ZM130.111 90.2474L134.941 88.9534L135.588 91.3682L130.758 92.6623L130.111 90.2474ZM133 81.7089L135.414 81.0619L137.356 88.3063L134.941 88.9534L133 81.7089Z" fill="#161616" fill-opacity="0.4"/>
<path d="M89.1542 136.629L88.5071 139.044L83.6775 137.749L81.0893 147.409L83.5041 148.056L82.8571 150.471L80.4422 149.824L79.7952 152.238L77.3804 151.591L81.2627 137.102L76.433 135.808L77.0801 133.394L89.1542 136.629ZM74.6653 132.746L73.3712 137.576L70.9564 136.929L71.6034 134.514L64.359 132.573L63.7119 134.988L61.2971 134.341L62.5912 129.511L74.6653 132.746ZM70.9564 136.929L70.3093 139.344L67.8945 138.697L68.5416 136.282L70.9564 136.929ZM67.8945 138.697L67.2475 141.112L62.4178 139.818L63.0649 137.403L67.8945 138.697ZM71.43 144.821L70.783 147.235L68.3682 146.588L69.0152 144.173L71.43 144.821ZM62.4178 139.818L61.1237 144.647L58.7089 144L60.003 139.17L62.4178 139.818ZM68.3682 146.588L67.7211 149.003L60.4767 147.062L61.1237 144.647L68.3682 146.588Z" fill="#161616" fill-opacity="0.4"/>
<path d="M52.1421 81.355L48.6066 77.8195L50.3744 76.0517L52.1421 77.8195L57.4454 72.5162L55.6777 70.7484L57.4454 68.9807L60.981 72.5162L52.1421 81.355ZM50.3744 76.0517L48.6066 74.284L50.3744 72.5162L52.1421 74.284L50.3744 76.0517ZM50.3744 72.5162L48.6066 70.7484L52.1421 67.2129L53.9099 68.9807L50.3744 72.5162ZM43.3033 72.5162L41.5355 70.7484L43.3033 68.9807L45.0711 70.7484L43.3033 72.5162ZM52.1421 67.2129L48.6066 63.6774L50.3744 61.9096L53.9099 65.4451L52.1421 67.2129ZM43.3033 68.9807L41.5355 67.2129L46.8388 61.9096L48.6066 63.6774L43.3033 68.9807ZM64.5165 68.9807L62.7487 67.2129L68.052 61.9096L69.8198 63.6774L64.5165 68.9807ZM60.981 61.9096L59.2132 60.1418L60.981 58.3741L62.7487 60.1418L60.981 61.9096ZM60.981 68.9807L52.1421 60.1418L53.9099 58.3741L59.2132 63.6774L60.981 61.9096L62.7487 63.6774L60.981 65.4451L62.7487 67.2129L60.981 68.9807ZM68.052 61.9096L62.7487 56.6063L60.981 58.3741L59.2132 56.6063L60.981 54.8385L59.2132 53.0708L60.981 51.303L69.8198 60.1418L68.052 61.9096ZM53.9099 58.3741L52.1421 56.6063L57.4454 51.303L59.2132 53.0708L53.9099 58.3741Z" fill="#161616" fill-opacity="0.4"/>
<path d="M107.606 45.5831L108.231 44.5006L110.396 45.7506L112.896 41.4204L111.814 40.7954L112.439 39.7129L113.521 40.3379L114.146 39.2554L115.229 39.8804L111.479 46.3756L113.644 47.6256L113.019 48.7081L107.606 45.5831Z" fill="#161616" fill-opacity="0.4"/>
<path d="M87.25 41V39.75H89.75V41H87.25ZM89.75 39.75V38.5H91V39.75H89.75ZM86 36V33.5H87.25V36H86ZM91 38.5V37.25H87.25V36H91V33.5H92.25V38.5H91ZM87.25 33.5V32.25H91V33.5H87.25Z" fill="#161616" fill-opacity="0.4"/>
<path d="M137.232 121L138.315 121.625L137.065 123.79L141.395 126.29L142.02 125.208L143.102 125.833L142.477 126.915L143.56 127.54L142.935 128.623L136.44 124.873L135.19 127.038L134.107 126.413L137.232 121ZM132.857 128.578L133.94 129.203L132.065 132.45L130.982 131.825L132.857 128.578ZM134.565 128.12L136.73 129.37L136.105 130.453L133.94 129.203L134.565 128.12ZM132.065 132.45L134.23 133.7L133.605 134.783L131.44 133.533L132.065 132.45ZM136.105 130.453L137.187 131.078L135.312 134.325L134.23 133.7L136.105 130.453ZM137.812 129.995L139.977 131.245L139.352 132.328L137.187 131.078L137.812 129.995ZM135.312 134.325L137.477 135.575L136.852 136.658L134.687 135.408L135.312 134.325ZM139.352 132.328L140.435 132.953L138.56 136.2L137.477 135.575L139.352 132.328Z" fill="#161616" fill-opacity="0.4"/>
<path d="M121.596 140.655L122.846 142.82L121.764 143.445L121.139 142.363L117.891 144.238L118.516 145.32L117.434 145.945L116.184 143.78L121.596 140.655ZM121.764 143.445L122.389 144.528L121.306 145.153L120.681 144.07L121.764 143.445ZM121.306 145.153L121.931 146.235L119.766 147.485L119.141 146.403L121.306 145.153ZM124.721 146.068L125.346 147.15L124.264 147.775L123.639 146.693L124.721 146.068ZM119.766 147.485L121.016 149.65L119.934 150.275L118.684 148.11L119.766 147.485ZM124.264 147.775L124.889 148.858L121.641 150.733L121.016 149.65L124.264 147.775Z" fill="#161616" fill-opacity="0.4"/>
<path d="M37.0125 123.96L35.8051 124.284L34.8345 120.662L36.0419 120.338L37.0125 123.96ZM34.8345 120.662L32.4197 121.309L32.0962 120.101L34.511 119.454L34.8345 120.662ZM36.1286 125.491L31.299 126.785L30.9755 125.578L32.1829 125.254L31.2123 121.632L32.4197 121.309L33.3903 124.931L35.8051 124.284L36.1286 125.491ZM30.9755 125.578L29.768 125.901L29.4445 124.694L30.6519 124.37L30.9755 125.578ZM29.4445 124.694L28.2371 125.018L27.5901 122.603L28.7975 122.279L29.4445 124.694Z" fill="#161616" fill-opacity="0.4"/>
<path d="M30 107L28.75 107L28.75 104.5L23.75 104.5L23.75 105.75L22.5 105.75L22.5 104.5L21.25 104.5L21.25 103.25L28.75 103.25L28.75 100.75L30 100.75L30 107ZM30 98.25L28.75 98.25L28.75 94.5L30 94.5L30 98.25ZM28.75 94.5L26.25 94.5L26.25 93.25L28.75 93.25L28.75 94.5ZM28.75 99.5L23.75 99.5L23.75 98.25L25 98.25L25 94.5L26.25 94.5L26.25 98.25L28.75 98.25L28.75 99.5ZM23.75 98.25L22.5 98.25L22.5 97L23.75 97L23.75 98.25ZM22.5 97L21.25 97L21.25 94.5L22.5 94.5L22.5 97Z" fill="#161616" fill-opacity="0.4"/>
</svg>
