<svg width="175" height="190" viewBox="0 0 175 190" fill="none" xmlns="http://www.w3.org/2000/svg">
<path d="M164.116 74.8952L106.821 18.4313L31.201 39.2808L11.0634 114.436L65.9484 170.971L143.978 150.05L164.116 74.8952Z" fill="#EEE1C2" stroke="#120800" stroke-width="4.61756"/>
<path d="M98.7543 48.5378L121.228 134.154M98.7543 48.5378L164.116 74.8952M98.7543 48.5378L106.821 18.4313M98.7543 48.5378L31.201 39.2808M98.7543 48.5378L36.9295 111.566M121.228 134.154L164.116 74.8952M121.228 134.154L36.9295 111.566M121.228 134.154L65.9484 170.971M121.228 134.154L143.978 150.05M164.116 74.8952L106.821 18.4313M164.116 74.8952L143.978 150.05M106.821 18.4313L31.201 39.2808M143.978 150.05L65.9484 170.971M65.9484 170.971L11.0634 114.436M65.9484 170.971L36.9295 111.566M11.0634 114.436L31.201 39.2808M11.0634 114.436L36.9295 111.566M31.201 39.2808L36.9295 111.566" stroke="#120800" stroke-width="4.61756"/>
<path d="M79.4501 105.966L80.0972 103.551L87.3416 105.492L86.6945 107.907L79.4501 105.966ZM77.6823 102.904L78.3294 100.489L80.7442 101.136L80.0972 103.551L77.6823 102.904ZM87.3416 105.492L88.6357 100.662L91.0505 101.309L89.7564 106.139L87.3416 105.492ZM83.8061 99.3682L84.4531 96.9534L89.2827 98.2474L88.6357 100.662L83.8061 99.3682ZM80.2705 93.2444L80.9176 90.8296L83.3324 91.4767L82.6853 93.8915L80.2705 93.2444ZM89.2827 98.2474L90.5768 93.4178L92.9916 94.0649L91.6976 98.8945L89.2827 98.2474ZM83.3324 91.4767L83.9794 89.0619L91.2239 91.003L90.5768 93.4178L83.3324 91.4767Z" fill="#120800"/>
<path d="M116.864 76.1764L119.278 75.5293L120.573 80.359L130.232 77.7708L129.585 75.356L132 74.7089L132.647 77.1237L135.061 76.4767L135.708 78.8915L121.22 82.7738L122.514 87.6034L120.099 88.2505L116.864 76.1764ZM121.393 93.0801L123.808 92.433L125.102 97.2627L122.687 97.9097L121.393 93.0801ZM125.102 97.2627L127.517 96.6156L128.164 99.0304L125.749 99.6775L125.102 97.2627ZM130.405 88.0771L135.235 86.783L135.882 89.1978L131.052 90.4919L130.405 88.0771ZM128.164 99.0304L130.579 98.3834L128.637 91.1389L131.052 90.4919L132.993 97.7363L137.823 96.4422L138.47 98.8571L128.811 101.445L128.164 99.0304ZM135.882 89.1978L138.297 88.5507L140.238 95.7952L137.823 96.4422L135.882 89.1978Z" fill="#161616" fill-opacity="0.4"/>
<path d="M81.2714 135.669L80.6243 138.084L75.7947 136.79L73.2065 146.449L75.6213 147.096L74.9743 149.511L72.5594 148.864L71.9124 151.278L69.4976 150.631L73.3799 136.142L68.5502 134.848L69.1973 132.434L81.2714 135.669Z" fill="#161616" fill-opacity="0.4"/>
<path d="M51.7481 80.2784L49.9803 78.5106L53.5159 74.9751L46.4448 67.904L44.677 69.6718L42.9093 67.904L44.677 66.1362L42.9093 64.3685L44.677 62.6007L55.2836 73.2073L58.8192 69.6718L60.5869 71.4395L51.7481 80.2784ZM65.8902 66.1362L60.5869 60.8329L62.3547 59.0652L67.658 64.3685L65.8902 66.1362ZM62.3547 59.0652L60.5869 57.2974L62.3547 55.5296L64.1225 57.2974L62.3547 59.0652ZM62.3547 55.5296L58.8192 51.9941L53.5159 57.2974L55.2836 59.0652L53.5159 60.8329L49.9803 57.2974L58.8192 48.4586L64.1225 53.7619L62.3547 55.5296Z" fill="#161616" fill-opacity="0.4"/>
<path d="M107.606 45.5831L108.231 44.5006L110.396 45.7506L112.896 41.4204L111.814 40.7954L112.439 39.7129L113.521 40.3379L114.146 39.2554L115.229 39.8804L111.479 46.3756L113.644 47.6256L113.019 48.7081L107.606 45.5831ZM114.101 49.3331L115.351 47.168L116.434 47.793L115.809 48.8756L119.057 50.7506L119.682 49.668L120.764 50.293L119.514 52.4581L114.101 49.3331ZM116.434 47.793L117.059 46.7105L118.141 47.3355L117.516 48.418L116.434 47.793ZM118.141 47.3355L118.766 46.253L120.932 47.503L120.307 48.5855L118.141 47.3355ZM117.226 43.9204L117.851 42.8379L118.934 43.4629L118.309 44.5454L117.226 43.9204ZM120.932 47.503L122.182 45.3379L123.264 45.9629L122.014 48.128L120.932 47.503ZM118.934 43.4629L119.559 42.3804L122.807 44.2554L122.182 45.3379L118.934 43.4629Z" fill="#161616" fill-opacity="0.4"/>
<path d="M77.6062 40.9229V39.6729H80.1062V34.6729H78.8562V33.4229H80.1062V32.1729H81.3562V39.6729H83.8562V40.9229H77.6062ZM86.3562 40.9229V39.6729H90.1062V40.9229H86.3562ZM87.6062 37.1729V35.9229H88.8562V37.1729H87.6062ZM85.1062 39.6729V33.4229H86.3562V37.1729H87.6062V38.4229H86.3562V39.6729H85.1062ZM90.1062 39.6729V35.9229H88.8562V34.6729H90.1062V33.4229H91.3562V39.6729H90.1062ZM86.3562 33.4229V32.1729H90.1062V33.4229H86.3562Z" fill="#161616" fill-opacity="0.4"/>
<path d="M135.732 127L136.815 127.625L135.565 129.79L139.895 132.29L140.52 131.208L141.602 131.833L140.977 132.915L142.06 133.54L141.435 134.623L134.94 130.873L133.69 133.038L132.607 132.413L135.732 127Z" fill="#161616" fill-opacity="0.4"/>
<path d="M123.014 145.61L123.639 146.692L122.556 147.317L121.931 146.235L123.014 145.61ZM122.556 147.317L123.181 148.4L122.099 149.025L121.474 147.942L122.556 147.317ZM117.266 143.155L118.516 145.32L122.846 142.82L124.096 144.985L123.014 145.61L122.389 144.527L119.141 146.402L121.016 149.65L122.099 149.025L122.724 150.107L120.559 151.357L116.184 143.78L117.266 143.155Z" fill="#161616" fill-opacity="0.4"/>
<path d="M39.5416 129.007L38.3342 129.33L37.6871 126.915L32.8575 128.209L33.181 129.417L31.9736 129.74L31.6501 128.533L30.4427 128.856L30.1192 127.649L37.3636 125.708L36.7166 123.293L37.924 122.97L39.5416 129.007ZM37.2769 120.555L36.0695 120.878L35.0989 117.256L36.3063 116.932L37.2769 120.555ZM36.393 122.086L35.1856 122.409L34.8621 121.202L36.0695 120.878L36.393 122.086ZM35.0989 117.256L31.4767 118.227L31.1532 117.019L34.7754 116.049L35.0989 117.256ZM32.7708 123.056L29.1486 124.027L27.531 117.99L28.7384 117.666L30.0325 122.496L31.2399 122.172L30.2693 118.55L31.4767 118.227L32.7708 123.056Z" fill="#161616" fill-opacity="0.4"/>
<path d="M29.6062 101.423L25.8562 101.423L25.8562 100.173L29.6062 100.173L29.6062 101.423ZM25.8562 100.173L24.6062 100.173L24.6062 98.9229L25.8562 98.9229L25.8562 100.173ZM24.6062 98.9229L22.1062 98.9229L22.1062 102.673L23.3562 102.673L23.3562 103.923L20.8562 103.923L20.8562 97.6729L24.6062 97.6729L24.6062 98.9229Z" fill="#161616" fill-opacity="0.4"/>
</svg>
