<svg width="175" height="190" viewBox="0 0 175 190" fill="none" xmlns="http://www.w3.org/2000/svg">
<path d="M164.116 74.8952L106.821 18.4313L31.201 39.2808L11.0634 114.436L65.9484 170.971L143.978 150.05L164.116 74.8952Z" fill="#EEE1C2" stroke="#120800" stroke-width="4.61756"/>
<path d="M98.7543 48.5378L121.228 134.154M98.7543 48.5378L164.116 74.8952M98.7543 48.5378L106.821 18.4313M98.7543 48.5378L31.201 39.2808M98.7543 48.5378L36.9295 111.566M121.228 134.154L164.116 74.8952M121.228 134.154L36.9295 111.566M121.228 134.154L65.9484 170.971M121.228 134.154L143.978 150.05M164.116 74.8952L106.821 18.4313M164.116 74.8952L143.978 150.05M106.821 18.4313L31.201 39.2808M143.978 150.05L65.9484 170.971M65.9484 170.971L11.0634 114.436M65.9484 170.971L36.9295 111.566M11.0634 114.436L31.201 39.2808M11.0634 114.436L36.9295 111.566M31.201 39.2808L36.9295 111.566" stroke="#120800" stroke-width="4.61756"/>
<path d="M71.0353 103.319L72.3294 98.4889L74.7442 99.1359L74.0972 101.551L81.3416 103.492L81.9886 101.077L84.4035 101.724L83.1094 106.554L71.0353 103.319ZM74.7442 99.1359L75.3912 96.7211L77.8061 97.3682L77.159 99.783L74.7442 99.1359ZM77.8061 97.3682L78.4531 94.9534L83.2827 96.2474L82.6357 98.6623L77.8061 97.3682ZM74.2705 91.2444L74.9176 88.8296L77.3324 89.4767L76.6853 91.8915L74.2705 91.2444ZM83.2827 96.2474L84.5768 91.4178L86.9916 92.0649L85.6976 96.8945L83.2827 96.2474ZM77.3324 89.4767L77.9794 87.0619L85.2239 89.003L84.5768 91.4178L77.3324 89.4767ZM87.939 107.848L88.586 105.433L95.8305 107.374L95.1834 109.789L87.939 107.848ZM92.2949 101.25L92.942 98.8356L95.3568 99.4827L94.7098 101.898L92.2949 101.25ZM86.1712 104.786L89.4065 92.7119L91.8213 93.359L89.8801 100.603L92.2949 101.25L91.6479 103.665L89.2331 103.018L88.586 105.433L86.1712 104.786ZM95.8305 107.374L97.7716 100.13L95.3568 99.4827L96.0039 97.0679L98.4187 97.7149L99.0657 95.3001L101.481 95.9472L98.2453 108.021L95.8305 107.374ZM91.8213 93.359L92.4683 90.9441L99.7128 92.8853L99.0657 95.3001L91.8213 93.359Z" fill="#120800"/>
<path d="M117.934 82.9039L122.764 81.6098L123.411 84.0246L120.996 84.6717L122.937 91.9161L125.352 91.2691L125.999 93.6839L121.169 94.978L117.934 82.9039ZM123.411 84.0246L125.826 83.3776L126.473 85.7924L124.058 86.4395L123.411 84.0246ZM126.473 85.7924L128.888 85.1454L130.182 89.975L127.767 90.622L126.473 85.7924ZM130.008 79.6687L132.423 79.0216L133.07 81.4364L130.655 82.0835L130.008 79.6687ZM130.182 89.975L135.011 88.6809L135.658 91.0957L130.829 92.3898L130.182 89.975ZM133.07 81.4364L135.485 80.7894L137.426 88.0338L135.011 88.6809L133.07 81.4364Z" fill="#161616" fill-opacity="0.4"/>
<path d="M83.6652 132.746L83.0181 135.161L78.1885 133.867L75.6003 143.526L78.0151 144.173L77.3681 146.588L74.9532 145.941L74.3062 148.356L71.8914 147.708L75.7737 133.22L70.944 131.926L71.5911 129.511L83.6652 132.746Z" fill="#161616" fill-opacity="0.4"/>
<path d="M59.5666 73.93L57.7989 72.1623L63.1022 66.859L64.8699 68.6267L59.5666 73.93ZM56.0311 73.93L52.4956 70.3945L54.2633 68.6267L57.7989 72.1623L56.0311 73.93ZM63.1022 66.859L59.5666 63.3234L61.3344 61.5557L64.8699 65.0912L63.1022 66.859ZM54.2633 68.6267L52.4956 66.859L57.7989 61.5557L59.5666 63.3234L54.2633 68.6267ZM50.7278 68.6267L47.1923 65.0912L48.96 63.3234L52.4956 66.859L50.7278 68.6267ZM57.7989 61.5557L54.2633 58.0201L56.0311 56.2524L59.5666 59.7879L57.7989 61.5557ZM48.96 63.3234L47.1923 61.5557L52.4956 56.2524L54.2633 58.0201L48.96 63.3234Z" fill="#161616" fill-opacity="0.4"/>
<path d="M108 43.6603L108.625 42.5777L110.79 43.8277L113.29 39.4976L112.208 38.8726L112.833 37.7901L113.915 38.4151L114.54 37.3325L115.623 37.9575L111.873 44.4527L114.038 45.7027L113.413 46.7853L108 43.6603ZM114.495 47.4103L115.745 45.2452L116.828 45.8702L116.203 46.9527L119.45 48.8277L120.075 47.7452L121.158 48.3702L119.908 50.5353L114.495 47.4103ZM116.828 45.8702L117.453 44.7877L118.535 45.4127L117.91 46.4952L116.828 45.8702ZM118.535 45.4127L119.16 44.3301L121.325 45.5801L120.7 46.6627L118.535 45.4127ZM117.62 41.9976L118.245 40.9151L119.328 41.5401L118.703 42.6226L117.62 41.9976ZM121.325 45.5801L122.575 43.4151L123.658 44.0401L122.408 46.2051L121.325 45.5801ZM119.328 41.5401L119.953 40.4575L123.2 42.3325L122.575 43.4151L119.328 41.5401Z" fill="#161616" fill-opacity="0.4"/>
<path d="M82 42V40.75H84.5V35.75H83.25V34.5H84.5V33.25H85.75V40.75H88.25V42H82ZM90.75 42V40.75H94.5V42H90.75ZM92 38.25V37H93.25V38.25H92ZM89.5 40.75V34.5H90.75V38.25H92V39.5H90.75V40.75H89.5ZM94.5 40.75V37H93.25V35.75H94.5V34.5H95.75V40.75H94.5ZM90.75 34.5V33.25H94.5V34.5H90.75Z" fill="#161616" fill-opacity="0.4"/>
<path d="M135.232 123L136.315 123.625L135.065 125.79L139.395 128.29L140.02 127.208L141.102 127.833L140.477 128.915L141.56 129.54L140.935 130.623L134.44 126.873L133.19 129.038L132.107 128.413L135.232 123ZM130.857 130.578L131.94 131.203L130.065 134.45L128.982 133.825L130.857 130.578ZM132.565 130.12L134.73 131.37L134.105 132.453L131.94 131.203L132.565 130.12ZM130.065 134.45L132.23 135.7L131.605 136.783L129.44 135.533L130.065 134.45ZM134.105 132.453L135.187 133.078L133.312 136.325L132.23 135.7L134.105 132.453ZM135.812 131.995L137.977 133.245L137.352 134.328L135.187 133.078L135.812 131.995ZM133.312 136.325L135.477 137.575L134.852 138.658L132.687 137.408L133.312 136.325ZM137.352 134.328L138.435 134.953L136.56 138.2L135.477 137.575L137.352 134.328Z" fill="#161616" fill-opacity="0.4"/>
<path d="M121.593 146.312L122.218 147.395L121.136 148.02L120.511 146.937L121.593 146.312ZM121.136 148.02L121.761 149.103L120.678 149.728L120.053 148.645L121.136 148.02ZM115.846 143.857L117.096 146.022L121.426 143.522L122.676 145.687L121.593 146.312L120.968 145.23L117.721 147.105L119.596 150.353L120.678 149.728L121.303 150.81L119.138 152.06L114.763 144.482L115.846 143.857Z" fill="#161616" fill-opacity="0.4"/>
<path d="M36.3767 123.66L35.1693 123.984L34.1988 120.361L35.4062 120.038L36.3767 123.66ZM34.1988 120.361L31.7839 121.009L31.4604 119.801L33.8752 119.154L34.1988 120.361ZM35.4929 125.191L30.6632 126.485L30.3397 125.278L31.5471 124.954L30.5765 121.332L31.7839 121.009L32.7545 124.631L35.1693 123.984L35.4929 125.191ZM30.3397 125.278L29.1323 125.601L28.8088 124.394L30.0162 124.07L30.3397 125.278ZM28.8088 124.394L27.6014 124.717L26.9543 122.303L28.1617 121.979L28.8088 124.394Z" fill="#161616" fill-opacity="0.4"/>
<path d="M30 107L28.75 107L28.75 104.5L23.75 104.5L23.75 105.75L22.5 105.75L22.5 104.5L21.25 104.5L21.25 103.25L28.75 103.25L28.75 100.75L30 100.75L30 107ZM30 98.25L28.75 98.25L28.75 94.5L30 94.5L30 98.25ZM28.75 94.5L26.25 94.5L26.25 93.25L28.75 93.25L28.75 94.5ZM28.75 99.5L23.75 99.5L23.75 98.25L25 98.25L25 94.5L26.25 94.5L26.25 98.25L28.75 98.25L28.75 99.5ZM23.75 98.25L22.5 98.25L22.5 97L23.75 97L23.75 98.25ZM22.5 97L21.25 97L21.25 94.5L22.5 94.5L22.5 97Z" fill="#161616" fill-opacity="0.4"/>
</svg>
