<svg width="175" height="190" viewBox="0 0 175 190" fill="none" xmlns="http://www.w3.org/2000/svg">
<path d="M164.116 74.8952L106.821 18.4313L31.201 39.2808L11.0634 114.436L65.9484 170.971L143.978 150.05L164.116 74.8952Z" fill="#EEE1C2" stroke="#120800" stroke-width="4.61756"/>
<path d="M98.7543 48.5378L121.228 134.154M98.7543 48.5378L164.116 74.8952M98.7543 48.5378L106.821 18.4313M98.7543 48.5378L31.201 39.2808M98.7543 48.5378L36.9295 111.566M121.228 134.154L164.116 74.8952M121.228 134.154L36.9295 111.566M121.228 134.154L65.9484 170.971M121.228 134.154L143.978 150.05M164.116 74.8952L106.821 18.4313M164.116 74.8952L143.978 150.05M106.821 18.4313L31.201 39.2808M143.978 150.05L65.9484 170.971M65.9484 170.971L11.0634 114.436M65.9484 170.971L36.9295 111.566M11.0634 114.436L31.201 39.2808M11.0634 114.436L36.9295 111.566M31.201 39.2808L36.9295 111.566" stroke="#120800" stroke-width="4.61756"/>
<path d="M71.0353 103.319L71.6823 100.904L76.512 102.198L79.1002 92.5385L76.6853 91.8915L77.3324 89.4767L79.7472 90.1237L80.3943 87.7089L82.8091 88.356L78.9268 102.845L83.7564 104.139L83.1094 106.554L71.0353 103.319ZM87.939 107.848L88.586 105.433L95.8305 107.374L95.1834 109.789L87.939 107.848ZM86.1712 104.786L86.8183 102.371L89.2331 103.018L88.586 105.433L86.1712 104.786ZM95.8305 107.374L97.7716 100.13L100.186 100.777L98.2453 108.021L95.8305 107.374ZM88.1124 97.5415L90.0535 90.2971L102.128 93.5323L101.481 95.9472L91.8213 93.359L91.1742 95.7738L98.4187 97.7149L97.7716 100.13L88.1124 97.5415Z" fill="#120800"/>
<path d="M115.864 75.1764L118.278 74.5293L119.573 79.359L129.232 76.7708L128.585 74.356L131 73.7089L131.647 76.1237L134.061 75.4767L134.708 77.8915L120.22 81.7738L121.514 86.6034L119.099 87.2505L115.864 75.1764ZM119.746 89.6653L124.576 88.3712L125.223 90.786L122.808 91.433L124.749 98.6775L127.164 98.0304L127.811 100.445L122.981 101.739L119.746 89.6653ZM125.223 90.786L127.637 90.1389L128.284 92.5538L125.87 93.2008L125.223 90.786ZM128.284 92.5538L130.699 91.9067L131.993 96.7363L129.579 97.3834L128.284 92.5538ZM131.82 86.43L134.235 85.783L134.882 88.1978L132.467 88.8448L131.82 86.43ZM131.993 96.7363L136.823 95.4422L137.47 97.8571L132.64 99.1512L131.993 96.7363ZM134.882 88.1978L137.297 87.5507L139.238 94.7952L136.823 95.4422L134.882 88.1978Z" fill="#161616" fill-opacity="0.4"/>
<path d="M81.2503 133.099L80.6033 135.514L73.3588 133.573L74.0059 131.158L81.2503 133.099ZM83.0181 136.161L81.724 140.99L79.3092 140.343L80.6033 135.514L83.0181 136.161ZM73.3588 133.573L72.0647 138.402L69.6499 137.755L70.944 132.926L73.3588 133.573ZM79.3092 140.343L78.6621 142.758L71.4177 140.817L72.0647 138.402L79.3092 140.343ZM81.077 143.405L79.7829 148.235L77.3681 147.588L78.6621 142.758L81.077 143.405ZM71.4177 140.817L70.1236 145.647L67.7088 145L69.0029 140.17L71.4177 140.817ZM77.3681 147.588L76.721 150.003L69.4766 148.061L70.1236 145.647L77.3681 147.588Z" fill="#161616" fill-opacity="0.4"/>
<path d="M52.1421 81.355L50.3744 79.5873L53.9099 76.0517L46.8388 68.9807L45.0711 70.7484L43.3033 68.9807L45.0711 67.2129L43.3033 65.4451L45.0711 63.6774L55.6777 74.284L59.2132 70.7484L60.981 72.5162L52.1421 81.355ZM64.5165 68.9807L62.7487 67.2129L68.052 61.9096L69.8198 63.6774L64.5165 68.9807ZM60.981 68.9807L59.2132 67.2129L60.981 65.4451L62.7487 67.2129L60.981 68.9807ZM68.052 61.9096L62.7487 56.6063L64.5165 54.8385L69.8198 60.1418L68.052 61.9096ZM55.6777 63.6774L50.3744 58.3741L59.2132 49.5352L60.981 51.303L53.9099 58.3741L55.6777 60.1418L60.981 54.8385L62.7487 56.6063L55.6777 63.6774Z" fill="#161616" fill-opacity="0.4"/>
<path d="M110.165 44.9103L112.04 41.6627L113.123 42.2877L111.248 45.5353L110.165 44.9103ZM113.123 42.2877L113.748 41.2051L114.83 41.8301L114.205 42.9127L113.123 42.2877ZM114.83 41.8301L116.08 39.6651L112.833 37.7901L112.208 38.8726L111.125 38.2476L112.375 36.0825L117.788 39.2075L115.913 42.4551L114.83 41.8301Z" fill="#161616" fill-opacity="0.4"/>
<path d="M88.25 42V40.75H92V42H88.25ZM87 40.75V39.5H88.25V40.75H87ZM92 40.75V38.25H93.25V40.75H92ZM89.5 38.25V37H92V38.25H89.5ZM87 35.75V34.5H88.25V35.75H87ZM92 37V34.5H93.25V37H92ZM88.25 34.5V33.25H92V34.5H88.25Z" fill="#161616" fill-opacity="0.4"/>
<path d="M132.732 127L134.897 128.25L134.272 129.333L133.19 128.708L131.315 131.955L132.397 132.58L131.772 133.663L129.607 132.413L132.732 127ZM134.272 129.333L135.355 129.958L134.73 131.04L133.647 130.415L134.272 129.333ZM134.73 131.04L135.812 131.665L134.562 133.83L133.48 133.205L134.73 131.04ZM138.145 130.125L139.227 130.75L138.602 131.833L137.52 131.208L138.145 130.125ZM134.562 133.83L136.727 135.08L136.102 136.163L133.937 134.913L134.562 133.83ZM138.602 131.833L139.685 132.458L137.81 135.705L136.727 135.08L138.602 131.833Z" fill="#161616" fill-opacity="0.4"/>
<path d="M123.014 145.61L123.639 146.693L122.556 147.318L121.931 146.235L123.014 145.61ZM122.556 147.318L123.181 148.4L122.099 149.025L121.474 147.943L122.556 147.318ZM117.266 143.155L118.516 145.32L122.846 142.82L124.096 144.985L123.014 145.61L122.389 144.528L119.141 146.403L121.016 149.65L122.099 149.025L122.724 150.108L120.559 151.358L116.184 143.78L117.266 143.155Z" fill="#161616" fill-opacity="0.4"/>
<path d="M35.4063 122.037L34.1989 122.361L33.2283 118.739L34.4357 118.415L35.4063 122.037ZM33.2283 118.739L30.8135 119.386L30.49 118.178L32.9048 117.531L33.2283 118.739ZM34.5224 123.568L29.6928 124.862L29.3693 123.655L30.5767 123.332L29.6061 119.709L30.8135 119.386L31.7841 123.008L34.1989 122.361L34.5224 123.568ZM29.3693 123.655L28.1618 123.979L27.8383 122.771L29.0457 122.448L29.3693 123.655ZM27.8383 122.771L26.6309 123.095L25.9839 120.68L27.1913 120.356L27.8383 122.771Z" fill="#161616" fill-opacity="0.4"/>
<path d="M30 107L28.75 107L28.75 104.5L23.75 104.5L23.75 105.75L22.5 105.75L22.5 104.5L21.25 104.5L21.25 103.25L28.75 103.25L28.75 100.75L30 100.75L30 107ZM30 99.5L27.5 99.5L27.5 98.25L28.75 98.25L28.75 94.5L27.5 94.5L27.5 93.25L30 93.25L30 99.5ZM27.5 98.25L26.25 98.25L26.25 97L27.5 97L27.5 98.25ZM26.25 97L25 97L25 94.5L26.25 94.5L26.25 97ZM23.75 99.5L22.5 99.5L22.5 98.25L23.75 98.25L23.75 99.5ZM25 94.5L22.5 94.5L22.5 93.25L25 93.25L25 94.5ZM22.5 98.25L21.25 98.25L21.25 94.5L22.5 94.5L22.5 98.25Z" fill="#161616" fill-opacity="0.4"/>
</svg>
