<svg width="175" height="190" viewBox="0 0 175 190" fill="none" xmlns="http://www.w3.org/2000/svg">
<path d="M164.116 74.8952L106.821 18.4313L31.201 39.2808L11.0634 114.436L65.9484 170.971L143.978 150.05L164.116 74.8952Z" fill="#EEE1C2" stroke="#120800" stroke-width="4.61756"/>
<path d="M98.7543 48.5378L121.228 134.154M98.7543 48.5378L164.116 74.8952M98.7543 48.5378L106.821 18.4313M98.7543 48.5378L31.201 39.2808M98.7543 48.5378L36.9295 111.566M121.228 134.154L164.116 74.8952M121.228 134.154L36.9295 111.566M121.228 134.154L65.9484 170.971M121.228 134.154L143.978 150.05M164.116 74.8952L106.821 18.4313M164.116 74.8952L143.978 150.05M106.821 18.4313L31.201 39.2808M143.978 150.05L65.9484 170.971M65.9484 170.971L11.0634 114.436M65.9484 170.971L36.9295 111.566M11.0634 114.436L31.201 39.2808M11.0634 114.436L36.9295 111.566M31.201 39.2808L36.9295 111.566" stroke="#120800" stroke-width="4.61756"/>
<path d="M71.0353 103.319L71.6823 100.904L76.512 102.198L79.1002 92.5385L76.6853 91.8915L77.3324 89.4767L79.7472 90.1237L80.3943 87.7089L82.8091 88.356L78.9268 102.845L83.7564 104.139L83.1094 106.554L71.0353 103.319ZM85.5242 107.201L86.1712 104.786L91.0009 106.08L93.589 96.4208L91.1742 95.7738L91.8213 93.359L94.2361 94.006L94.8831 91.5912L97.298 92.2382L93.4157 106.727L98.2453 108.021L97.5982 110.436L85.5242 107.201Z" fill="#120800"/>
<path d="M117.511 85.5912L119.925 84.9441L121.867 92.1886L119.452 92.8356L117.511 85.5912ZM121.867 92.1886L126.696 90.8945L127.343 93.3093L122.514 94.6034L121.867 92.1886ZM119.278 82.5293L128.938 79.9411L129.585 82.356L127.17 83.003L129.111 90.2474L126.696 90.8945L124.755 83.6501L119.925 84.9441L119.278 82.5293ZM129.585 82.356L132 81.7089L132.647 84.1237L130.232 84.7708L129.585 82.356ZM132.647 84.1237L135.061 83.4767L136.356 88.3063L133.941 88.9534L132.647 84.1237Z" fill="#161616" fill-opacity="0.4"/>
<path d="M82.6652 134.746L82.0181 137.161L77.1885 135.867L74.6003 145.526L77.0151 146.173L76.3681 148.588L73.9532 147.941L73.3062 150.356L70.8914 149.708L74.7737 135.22L69.944 133.926L70.5911 131.511L82.6652 134.746Z" fill="#161616" fill-opacity="0.4"/>
<path d="M50.8388 66.9097L49.0711 65.142L50.8388 63.3742L52.6066 65.142L50.8388 66.9097ZM50.8388 63.3742L49.0711 61.6064L50.8388 59.8387L52.6066 61.6064L50.8388 63.3742ZM63.2132 68.6775L59.6777 65.142L52.6066 72.213L49.0711 68.6775L50.8388 66.9097L52.6066 68.6775L57.9099 63.3742L52.6066 58.0709L50.8388 59.8387L49.0711 58.0709L52.6066 54.5354L64.981 66.9097L63.2132 68.6775Z" fill="#161616" fill-opacity="0.4"/>
<path d="M108 43.6603L108.625 42.5777L110.79 43.8277L113.29 39.4976L112.208 38.8726L112.833 37.7901L113.915 38.4151L114.54 37.3325L115.623 37.9575L111.873 44.4527L114.038 45.7027L113.413 46.7853L108 43.6603ZM114.495 47.4103L115.745 45.2452L116.828 45.8702L116.203 46.9527L119.45 48.8277L120.075 47.7452L121.158 48.3702L119.908 50.5353L114.495 47.4103ZM116.828 45.8702L117.453 44.7877L118.535 45.4127L117.91 46.4952L116.828 45.8702ZM118.535 45.4127L119.16 44.3301L121.325 45.5801L120.7 46.6627L118.535 45.4127ZM117.62 41.9976L118.245 40.9151L119.328 41.5401L118.703 42.6226L117.62 41.9976ZM121.325 45.5801L122.575 43.4151L123.658 44.0401L122.408 46.2051L121.325 45.5801ZM119.328 41.5401L119.953 40.4575L123.2 42.3325L122.575 43.4151L119.328 41.5401Z" fill="#161616" fill-opacity="0.4"/>
<path d="M80 41V39.75H82.5V34.75H81.25V33.5H82.5V32.25H83.75V39.75H86.25V41H80ZM88.75 41V39.75H92.5V41H88.75ZM90 37.25V36H91.25V37.25H90ZM87.5 39.75V33.5H88.75V37.25H90V38.5H88.75V39.75H87.5ZM92.5 39.75V36H91.25V34.75H92.5V33.5H93.75V39.75H92.5ZM88.75 33.5V32.25H92.5V33.5H88.75Z" fill="#161616" fill-opacity="0.4"/>
<path d="M134.107 127.083L135.19 127.708L133.94 129.873L132.857 129.248L134.107 127.083ZM133.94 129.873L135.022 130.498L134.397 131.58L133.315 130.955L133.94 129.873ZM139.062 128.5L141.227 129.75L140.602 130.833L138.437 129.583L139.062 128.5ZM134.397 131.58L135.48 132.205L137.355 128.958L138.437 129.583L136.562 132.83L138.727 134.08L138.102 135.163L133.772 132.663L134.397 131.58ZM140.602 130.833L141.685 131.458L139.81 134.705L138.727 134.08L140.602 130.833Z" fill="#161616" fill-opacity="0.4"/>
<path d="M123.014 145.61L123.639 146.693L122.556 147.318L121.931 146.235L123.014 145.61ZM122.556 147.318L123.181 148.4L122.099 149.025L121.474 147.943L122.556 147.318ZM117.266 143.155L118.516 145.32L122.846 142.82L124.096 144.985L123.014 145.61L122.389 144.528L119.141 146.403L121.016 149.65L122.099 149.025L122.724 150.108L120.559 151.358L116.184 143.78L117.266 143.155Z" fill="#161616" fill-opacity="0.4"/>
<path d="M35.4063 122.037L34.1989 122.361L33.2283 118.739L34.4357 118.415L35.4063 122.037ZM33.2283 118.739L30.8135 119.386L30.49 118.178L32.9048 117.531L33.2283 118.739ZM34.5224 123.568L29.6928 124.862L29.3693 123.655L30.5767 123.332L29.6061 119.709L30.8135 119.386L31.7841 123.008L34.1989 122.361L34.5224 123.568ZM29.3693 123.655L28.1618 123.979L27.8383 122.771L29.0457 122.448L29.3693 123.655ZM27.8383 122.771L26.6309 123.095L25.9839 120.68L27.1913 120.356L27.8383 122.771Z" fill="#161616" fill-opacity="0.4"/>
<path d="M30 107L27.5 107L27.5 105.75L28.75 105.75L28.75 102L27.5 102L27.5 100.75L30 100.75L30 107ZM27.5 105.75L26.25 105.75L26.25 104.5L27.5 104.5L27.5 105.75ZM26.25 104.5L25 104.5L25 102L26.25 102L26.25 104.5ZM23.75 107L22.5 107L22.5 105.75L23.75 105.75L23.75 107ZM25 102L22.5 102L22.5 100.75L25 100.75L25 102ZM22.5 105.75L21.25 105.75L21.25 102L22.5 102L22.5 105.75Z" fill="#161616" fill-opacity="0.4"/>
</svg>
