<svg width="175" height="190" viewBox="0 0 175 190" fill="none" xmlns="http://www.w3.org/2000/svg">
<path d="M164.116 74.8952L106.821 18.4313L31.201 39.2808L11.0634 114.436L65.9484 170.971L143.978 150.05L164.116 74.8952Z" fill="#EEE1C2" stroke="#120800" stroke-width="4.61756"/>
<path d="M98.7543 48.5378L121.228 134.154M98.7543 48.5378L164.116 74.8952M98.7543 48.5378L106.821 18.4313M98.7543 48.5378L31.201 39.2808M98.7543 48.5378L36.9295 111.566M121.228 134.154L164.116 74.8952M121.228 134.154L36.9295 111.566M121.228 134.154L65.9484 170.971M121.228 134.154L143.978 150.05M164.116 74.8952L106.821 18.4313M164.116 74.8952L143.978 150.05M106.821 18.4313L31.201 39.2808M143.978 150.05L65.9484 170.971M65.9484 170.971L11.0634 114.436M65.9484 170.971L36.9295 111.566M11.0634 114.436L31.201 39.2808M11.0634 114.436L36.9295 111.566M31.201 39.2808L36.9295 111.566" stroke="#120800" stroke-width="4.61756"/>
<path d="M71.0353 103.319L71.6823 100.904L76.512 102.198L79.1002 92.5385L76.6853 91.8915L77.3324 89.4767L79.7472 90.1237L80.3943 87.7089L82.8091 88.356L78.9268 102.845L83.7564 104.139L83.1094 106.554L71.0353 103.319ZM87.939 107.848L88.586 105.433L93.4157 106.727L92.7686 109.142L87.939 107.848ZM93.4157 106.727L94.0627 104.312L96.4775 104.959L95.8305 107.374L93.4157 106.727ZM88.1124 97.5415L89.4065 92.7119L91.8213 93.359L90.5272 98.1886L88.1124 97.5415ZM96.4775 104.959L97.1246 102.545L89.8801 100.603L90.5272 98.1886L97.7716 100.13L99.0657 95.3001L101.481 95.9472L98.8923 105.606L96.4775 104.959ZM91.8213 93.359L92.4683 90.9441L99.7128 92.8853L99.0657 95.3001L91.8213 93.359Z" fill="#120800"/>
<path d="M117.934 82.9039L122.764 81.6098L123.411 84.0246L120.996 84.6717L122.937 91.9161L125.352 91.2691L125.999 93.6839L121.169 94.978L117.934 82.9039ZM123.411 84.0246L125.826 83.3776L126.473 85.7924L124.058 86.4395L123.411 84.0246ZM126.473 85.7924L128.888 85.1454L130.182 89.975L127.767 90.622L126.473 85.7924ZM130.008 79.6687L132.423 79.0216L133.07 81.4364L130.655 82.0835L130.008 79.6687ZM130.182 89.975L135.011 88.6809L135.658 91.0957L130.829 92.3898L130.182 89.975ZM133.07 81.4364L135.485 80.7894L137.426 88.0338L135.011 88.6809L133.07 81.4364Z" fill="#161616" fill-opacity="0.4"/>
<path d="M83.6652 132.746L83.0181 135.161L78.1885 133.867L75.6003 143.526L78.0151 144.173L77.3681 146.588L74.9532 145.941L74.3062 148.356L71.8914 147.708L75.7737 133.22L70.944 131.926L71.5911 129.511L83.6652 132.746Z" fill="#161616" fill-opacity="0.4"/>
<path d="M52.1421 81.355L50.3744 79.5873L53.9099 76.0517L46.8388 68.9807L45.0711 70.7484L43.3033 68.9807L45.0711 67.2129L43.3033 65.4451L45.0711 63.6774L55.6777 74.284L59.2132 70.7484L60.981 72.5162L52.1421 81.355ZM62.7487 70.7484L59.2132 67.2129L60.981 65.4451L62.7487 67.2129L68.052 61.9096L66.2843 60.1418L68.052 58.3741L71.5876 61.9096L62.7487 70.7484ZM60.981 65.4451L59.2132 63.6774L60.981 61.9096L62.7487 63.6774L60.981 65.4451ZM60.981 61.9096L59.2132 60.1418L62.7487 56.6063L64.5165 58.3741L60.981 61.9096ZM53.9099 61.9096L52.1421 60.1418L53.9099 58.3741L55.6777 60.1418L53.9099 61.9096ZM62.7487 56.6063L59.2132 53.0708L60.981 51.303L64.5165 54.8385L62.7487 56.6063ZM53.9099 58.3741L52.1421 56.6063L57.4454 51.303L59.2132 53.0708L53.9099 58.3741Z" fill="#161616" fill-opacity="0.4"/>
<path d="M111.897 45.9103L112.522 44.8277L114.687 46.0777L114.062 47.1603L111.897 45.9103ZM114.687 46.0777L115.312 44.9952L116.395 45.6202L115.77 46.7027L114.687 46.0777ZM113.315 40.9551L114.565 38.7901L115.647 39.4151L114.397 41.5801L113.315 40.9551ZM116.395 45.6202L117.02 44.5377L113.772 42.6627L114.397 41.5801L117.645 43.4551L118.895 41.2901L119.977 41.9151L117.477 46.2452L116.395 45.6202ZM115.647 39.4151L116.272 38.3325L119.52 40.2075L118.895 41.2901L115.647 39.4151Z" fill="#161616" fill-opacity="0.4"/>
<path d="M86.5 42V40.75H90.25V42H86.5ZM85.25 40.75V39.5H86.5V40.75H85.25ZM90.25 40.75V37H91.5V40.75H90.25ZM85.25 37V33.25H91.5V34.5H86.5V35.75H90.25V37H85.25Z" fill="#161616" fill-opacity="0.4"/>
<path d="M135.232 123L137.397 124.25L136.772 125.333L135.69 124.708L133.815 127.955L134.897 128.58L134.272 129.663L132.107 128.413L135.232 123ZM136.772 125.333L137.855 125.958L137.23 127.04L136.147 126.415L136.772 125.333ZM137.23 127.04L138.312 127.665L137.062 129.83L135.98 129.205L137.23 127.04ZM140.645 126.125L141.727 126.75L141.102 127.833L140.02 127.208L140.645 126.125ZM137.062 129.83L139.227 131.08L138.602 132.163L136.437 130.913L137.062 129.83ZM141.102 127.833L142.185 128.458L140.31 131.705L139.227 131.08L141.102 127.833ZM130.857 130.578L131.94 131.203L130.065 134.45L128.982 133.825L130.857 130.578ZM133.48 133.535L134.562 134.16L133.937 135.243L132.855 134.618L133.48 133.535ZM132.565 130.12L137.977 133.245L137.352 134.328L134.105 132.453L133.48 133.535L132.397 132.91L133.022 131.828L131.94 131.203L132.565 130.12ZM130.065 134.45L133.312 136.325L133.937 135.243L135.02 135.868L134.395 136.95L135.477 137.575L134.852 138.658L129.44 135.533L130.065 134.45ZM137.352 134.328L138.435 134.953L136.56 138.2L135.477 137.575L137.352 134.328Z" fill="#161616" fill-opacity="0.4"/>
<path d="M122.99 139.732L123.615 140.815L121.45 142.065L123.95 146.395L125.033 145.77L125.658 146.853L124.575 147.478L125.2 148.56L124.118 149.185L120.368 142.69L118.203 143.94L117.578 142.857L122.99 139.732ZM115.413 144.107L116.038 145.19L112.79 147.065L112.165 145.982L115.413 144.107ZM112.79 147.065L114.04 149.23L112.958 149.855L111.708 147.69L112.79 147.065ZM117.12 144.565L119.62 148.895L118.538 149.52L117.913 148.437L114.665 150.312L114.04 149.23L117.288 147.355L116.038 145.19L117.12 144.565ZM118.538 149.52L119.163 150.603L118.08 151.228L117.455 150.145L118.538 149.52ZM118.08 151.228L118.705 152.31L116.54 153.56L115.915 152.478L118.08 151.228Z" fill="#161616" fill-opacity="0.4"/>
<path d="M36.7003 124.868L34.2855 125.515L33.9619 124.307L35.1693 123.984L34.1988 120.361L32.9914 120.685L32.6678 119.478L35.0826 118.831L36.7003 124.868ZM33.9619 124.307L32.7545 124.631L32.431 123.423L33.6384 123.1L33.9619 124.307ZM32.431 123.423L31.2236 123.747L30.5765 121.332L31.7839 121.009L32.431 123.423ZM30.6632 126.485L29.4558 126.809L29.1323 125.601L30.3397 125.278L30.6632 126.485ZM30.5765 121.332L28.1617 121.979L27.8382 120.772L30.253 120.125L30.5765 121.332ZM29.1323 125.601L27.9249 125.925L26.9543 122.303L28.1617 121.979L29.1323 125.601Z" fill="#161616" fill-opacity="0.4"/>
<path d="M30 102.5L28.75 102.5L28.75 98.75L30 98.75L30 102.5ZM28.75 98.75L26.25 98.75L26.25 97.5L28.75 97.5L28.75 98.75ZM28.75 103.75L23.75 103.75L23.75 102.5L25 102.5L25 98.75L26.25 98.75L26.25 102.5L28.75 102.5L28.75 103.75ZM23.75 102.5L22.5 102.5L22.5 101.25L23.75 101.25L23.75 102.5ZM22.5 101.25L21.25 101.25L21.25 98.75L22.5 98.75L22.5 101.25Z" fill="#161616" fill-opacity="0.4"/>
</svg>
