<svg width="175" height="190" viewBox="0 0 175 190" fill="none" xmlns="http://www.w3.org/2000/svg">
<path d="M164.116 74.8952L106.821 18.4313L31.201 39.2808L11.0634 114.436L65.9484 170.971L143.978 150.05L164.116 74.8952Z" fill="#EEE1C2" stroke="#120800" stroke-width="4.61756"/>
<path d="M98.7543 48.5378L121.228 134.154M98.7543 48.5378L164.116 74.8952M98.7543 48.5378L106.821 18.4313M98.7543 48.5378L31.201 39.2808M98.7543 48.5378L36.9295 111.566M121.228 134.154L164.116 74.8952M121.228 134.154L36.9295 111.566M121.228 134.154L65.9484 170.971M121.228 134.154L143.978 150.05M164.116 74.8952L106.821 18.4313M164.116 74.8952L143.978 150.05M106.821 18.4313L31.201 39.2808M143.978 150.05L65.9484 170.971M65.9484 170.971L11.0634 114.436M65.9484 170.971L36.9295 111.566M11.0634 114.436L31.201 39.2808M11.0634 114.436L36.9295 111.566M31.201 39.2808L36.9295 111.566" stroke="#120800" stroke-width="4.61756"/>
<path d="M77.0353 105.319L78.3294 100.489L80.7442 101.136L80.0972 103.551L87.3416 105.492L87.9886 103.077L90.4035 103.724L89.1094 108.554L77.0353 105.319ZM80.7442 101.136L81.3912 98.7211L83.8061 99.3682L83.159 101.783L80.7442 101.136ZM83.8061 99.3682L84.4531 96.9534L89.2827 98.2474L88.6357 100.662L83.8061 99.3682ZM80.2705 93.2444L80.9176 90.8296L83.3324 91.4767L82.6853 93.8915L80.2705 93.2444ZM89.2827 98.2474L90.5768 93.4178L92.9916 94.0649L91.6976 98.8945L89.2827 98.2474ZM83.3324 91.4767L83.9794 89.0619L91.2239 91.003L90.5768 93.4178L83.3324 91.4767Z" fill="#120800"/>
<path d="M115.864 76.1764L118.278 75.5293L119.573 80.359L129.232 77.7708L128.585 75.356L131 74.7089L131.647 77.1237L134.061 76.4767L134.708 78.8915L120.22 82.7738L121.514 87.6034L119.099 88.2505L115.864 76.1764ZM120.393 93.0801L122.808 92.433L124.749 99.6775L122.334 100.325L120.393 93.0801ZM122.161 90.0182L126.99 88.7241L127.637 91.1389L122.808 92.433L122.161 90.0182ZM124.749 99.6775L129.579 98.3834L130.226 100.798L125.396 102.092L124.749 99.6775ZM127.637 91.1389L130.052 90.4919L131.993 97.7363L129.579 98.3834L127.637 91.1389ZM129.405 88.0771L134.235 86.783L134.882 89.1978L130.052 90.4919L129.405 88.0771ZM131.993 97.7363L136.823 96.4422L137.47 98.8571L132.64 100.151L131.993 97.7363ZM134.882 89.1978L137.297 88.5507L139.238 95.7952L136.823 96.4422L134.882 89.1978Z" fill="#161616" fill-opacity="0.4"/>
<path d="M90.1542 135.628L88.8601 140.458L86.4453 139.811L87.0923 137.396L79.8479 135.455L79.2008 137.87L76.786 137.223L78.0801 132.393L90.1542 135.628ZM86.4453 139.811L85.7982 142.226L83.3834 141.579L84.0304 139.164L86.4453 139.811ZM83.3834 141.579L82.7363 143.993L77.9067 142.699L78.5538 140.285L83.3834 141.579ZM86.9189 147.702L86.2719 150.117L83.8571 149.47L84.5041 147.055L86.9189 147.702ZM77.9067 142.699L76.6126 147.529L74.1978 146.882L75.4919 142.052L77.9067 142.699ZM83.8571 149.47L83.21 151.885L75.9656 149.944L76.6126 147.529L83.8571 149.47ZM73.2505 131.099L72.6034 133.514L65.359 131.573L66.006 129.158L73.2505 131.099ZM68.8945 137.696L68.2475 140.111L65.8326 139.464L66.4797 137.049L68.8945 137.696ZM75.0182 134.161L71.783 146.235L69.3682 145.588L71.3093 138.343L68.8945 137.696L69.5416 135.282L71.9564 135.929L72.6034 133.514L75.0182 134.161ZM65.359 131.573L63.4178 138.817L65.8326 139.464L65.1856 141.879L62.7708 141.232L62.1237 143.647L59.7089 143L62.9442 130.926L65.359 131.573ZM69.3682 145.588L68.7211 148.003L61.4767 146.061L62.1237 143.647L69.3682 145.588Z" fill="#161616" fill-opacity="0.4"/>
<path d="M51.7481 80.2784L49.9803 78.5106L53.5159 74.9751L46.4448 67.904L44.677 69.6718L42.9093 67.904L44.677 66.1362L42.9093 64.3685L44.677 62.6007L55.2836 73.2073L58.8192 69.6718L60.5869 71.4395L51.7481 80.2784ZM62.3547 69.6718L58.8192 66.1362L60.5869 64.3685L62.3547 66.1362L67.658 60.8329L65.8902 59.0652L67.658 57.2974L71.1935 60.8329L62.3547 69.6718ZM60.5869 64.3685L58.8192 62.6007L60.5869 60.8329L62.3547 62.6007L60.5869 64.3685ZM60.5869 60.8329L58.8192 59.0652L62.3547 55.5296L64.1225 57.2974L60.5869 60.8329ZM53.5159 60.8329L51.7481 59.0652L53.5159 57.2974L55.2836 59.0652L53.5159 60.8329ZM62.3547 55.5296L58.8192 51.9941L60.5869 50.2263L64.1225 53.7619L62.3547 55.5296ZM53.5159 57.2974L51.7481 55.5296L57.0514 50.2263L58.8192 51.9941L53.5159 57.2974Z" fill="#161616" fill-opacity="0.4"/>
<path d="M108.689 46.2081L109.314 45.1256L112.561 47.0006L111.936 48.0831L108.689 46.2081ZM108.231 44.5006L108.856 43.418L109.939 44.043L109.314 45.1256L108.231 44.5006ZM112.561 47.0006L114.436 43.753L115.519 44.378L113.644 47.6256L112.561 47.0006ZM110.106 41.253L111.981 38.0054L117.394 41.1304L116.769 42.2129L112.439 39.7129L111.814 40.7954L115.061 42.6704L114.436 43.753L110.106 41.253Z" fill="#161616" fill-opacity="0.4"/>
<path d="M77.6062 40.9229V39.6729H80.1062V34.6729H78.8562V33.4229H80.1062V32.1729H81.3562V39.6729H83.8562V40.9229H77.6062ZM86.3562 40.9229V39.6729H90.1062V40.9229H86.3562ZM85.1062 39.6729V38.4229H86.3562V39.6729H85.1062ZM90.1062 39.6729V35.9229H91.3562V39.6729H90.1062ZM85.1062 35.9229V32.1729H91.3562V33.4229H86.3562V34.6729H90.1062V35.9229H85.1062Z" fill="#161616" fill-opacity="0.4"/>
<path d="M138.838 119.923L139.921 120.548L138.671 122.713L143.001 125.213L143.626 124.13L144.708 124.755L144.083 125.838L145.166 126.463L144.541 127.545L138.046 123.795L136.796 125.961L135.713 125.336L138.838 119.923ZM134.463 127.501L135.546 128.126L133.671 131.373L132.588 130.748L134.463 127.501ZM136.171 127.043L138.336 128.293L137.711 129.376L135.546 128.126L136.171 127.043ZM133.671 131.373L135.836 132.623L135.211 133.706L133.046 132.456L133.671 131.373ZM137.711 129.376L138.793 130.001L136.918 133.248L135.836 132.623L137.711 129.376ZM139.418 128.918L141.583 130.168L140.958 131.251L138.793 130.001L139.418 128.918ZM136.918 133.248L139.083 134.498L138.458 135.581L136.293 134.331L136.918 133.248ZM140.958 131.251L142.041 131.876L140.166 135.123L139.083 134.498L140.958 131.251Z" fill="#161616" fill-opacity="0.4"/>
<path d="M121.596 140.655L122.221 141.737L120.056 142.987L122.556 147.317L123.639 146.692L124.264 147.775L123.181 148.4L123.806 149.482L122.724 150.107L118.974 143.612L116.809 144.862L116.184 143.78L121.596 140.655Z" fill="#161616" fill-opacity="0.4"/>
<path d="M39.5416 130.007L38.3342 130.33L37.6871 127.915L32.8575 129.209L33.181 130.417L31.9736 130.74L31.6501 129.533L30.4427 129.856L30.1192 128.649L37.3636 126.708L36.7166 124.293L37.924 123.97L39.5416 130.007ZM37.2769 121.555L36.0695 121.878L35.0989 118.256L36.3063 117.932L37.2769 121.555ZM33.3312 121.318L32.1238 121.641L31.8002 120.434L33.0076 120.11L33.3312 121.318ZM36.393 123.086L30.356 124.703L30.0325 123.496L33.6547 122.525L33.3312 121.318L34.5386 120.994L34.8621 122.202L36.0695 121.878L36.393 123.086ZM35.0989 118.256L31.4767 119.227L31.8002 120.434L30.5928 120.757L30.2693 119.55L29.0619 119.874L28.7384 118.666L34.7754 117.049L35.0989 118.256ZM30.0325 123.496L28.8251 123.819L27.8545 120.197L29.0619 119.874L30.0325 123.496Z" fill="#161616" fill-opacity="0.4"/>
<path d="M30 107L28.75 107L28.75 104.5L23.75 104.5L23.75 105.75L22.5 105.75L22.5 104.5L21.25 104.5L21.25 103.25L28.75 103.25L28.75 100.75L30 100.75L30 107ZM30 98.25L28.75 98.25L28.75 94.5L30 94.5L30 98.25ZM28.75 94.5L26.25 94.5L26.25 93.25L28.75 93.25L28.75 94.5ZM28.75 99.5L23.75 99.5L23.75 98.25L25 98.25L25 94.5L26.25 94.5L26.25 98.25L28.75 98.25L28.75 99.5ZM23.75 98.25L22.5 98.25L22.5 97L23.75 97L23.75 98.25ZM22.5 97L21.25 97L21.25 94.5L22.5 94.5L22.5 97Z" fill="#161616" fill-opacity="0.4"/>
</svg>
