<svg width="175" height="190" viewBox="0 0 175 190" fill="none" xmlns="http://www.w3.org/2000/svg">
<path d="M164.116 74.8952L106.821 18.4313L31.201 39.2808L11.0634 114.436L65.9484 170.971L143.978 150.05L164.116 74.8952Z" fill="#EEE1C2" stroke="#120800" stroke-width="4.61756"/>
<path d="M98.7543 48.5378L121.228 134.154M98.7543 48.5378L164.116 74.8952M98.7543 48.5378L106.821 18.4313M98.7543 48.5378L31.201 39.2808M98.7543 48.5378L36.9295 111.566M121.228 134.154L164.116 74.8952M121.228 134.154L36.9295 111.566M121.228 134.154L65.9484 170.971M121.228 134.154L143.978 150.05M164.116 74.8952L106.821 18.4313M164.116 74.8952L143.978 150.05M106.821 18.4313L31.201 39.2808M143.978 150.05L65.9484 170.971M65.9484 170.971L11.0634 114.436M65.9484 170.971L36.9295 111.566M11.0634 114.436L31.201 39.2808M11.0634 114.436L36.9295 111.566M31.201 39.2808L36.9295 111.566" stroke="#120800" stroke-width="4.61756"/>
<path d="M71.0353 103.319L71.6823 100.904L76.512 102.198L79.1002 92.5385L76.6853 91.8915L77.3324 89.4767L79.7472 90.1237L80.3943 87.7089L82.8091 88.356L78.9268 102.845L83.7564 104.139L83.1094 106.554L71.0353 103.319ZM90.3538 108.495L92.2949 101.25L94.7098 101.898L92.7686 109.142L90.3538 108.495ZM94.7098 101.898L95.3568 99.4827L97.7716 100.13L97.1246 102.545L94.7098 101.898ZM97.7716 100.13L99.0657 95.3001L91.8213 93.359L91.1742 95.7738L88.7594 95.1267L90.0535 90.2971L102.128 93.5323L100.186 100.777L97.7716 100.13Z" fill="#120800"/>
<path d="M115.864 75.1764L118.278 74.5293L119.573 79.359L129.232 76.7708L128.585 74.356L131 73.7089L131.647 76.1237L134.061 75.4767L134.708 77.8915L120.22 81.7738L121.514 86.6034L119.099 87.2505L115.864 75.1764ZM130.052 89.4919L132.467 88.8448L133.114 91.2597L130.699 91.9067L130.052 89.4919ZM133.114 91.2597L135.529 90.6126L136.176 93.0274L133.761 93.6745L133.114 91.2597ZM122.334 99.3245L127.164 98.0304L124.576 88.3712L129.405 87.0771L130.052 89.4919L127.637 90.1389L129.579 97.3834L136.823 95.4422L136.176 93.0274L138.591 92.3804L139.885 97.21L122.981 101.739L122.334 99.3245Z" fill="#161616" fill-opacity="0.4"/>
<path d="M83.6652 132.746L83.0181 135.161L78.1885 133.867L75.6003 143.526L78.0151 144.173L77.3681 146.588L74.9532 145.941L74.3062 148.356L71.8914 147.708L75.7737 133.22L70.944 131.926L71.5911 129.511L83.6652 132.746Z" fill="#161616" fill-opacity="0.4"/>
<path d="M52.1421 81.355L50.3744 79.5873L53.9099 76.0517L46.8388 68.9807L45.0711 70.7484L43.3033 68.9807L45.0711 67.2129L43.3033 65.4451L45.0711 63.6774L55.6777 74.284L59.2132 70.7484L60.981 72.5162L52.1421 81.355ZM62.7487 70.7484L59.2132 67.2129L60.981 65.4451L62.7487 67.2129L68.052 61.9096L66.2843 60.1418L68.052 58.3741L71.5876 61.9096L62.7487 70.7484ZM60.981 65.4451L59.2132 63.6774L60.981 61.9096L62.7487 63.6774L60.981 65.4451ZM60.981 61.9096L59.2132 60.1418L62.7487 56.6063L64.5165 58.3741L60.981 61.9096ZM53.9099 61.9096L52.1421 60.1418L53.9099 58.3741L55.6777 60.1418L53.9099 61.9096ZM62.7487 56.6063L59.2132 53.0708L60.981 51.303L64.5165 54.8385L62.7487 56.6063ZM53.9099 58.3741L52.1421 56.6063L57.4454 51.303L59.2132 53.0708L53.9099 58.3741Z" fill="#161616" fill-opacity="0.4"/>
<path d="M108 43.6603L108.625 42.5777L110.79 43.8277L113.29 39.4976L112.208 38.8726L112.833 37.7901L113.915 38.4151L114.54 37.3325L115.623 37.9575L111.873 44.4527L114.038 45.7027L113.413 46.7853L108 43.6603ZM115.578 48.0353L116.203 46.9527L119.45 48.8277L118.825 49.9103L115.578 48.0353ZM115.12 46.3277L115.745 45.2452L116.828 45.8702L116.203 46.9527L115.12 46.3277ZM119.45 48.8277L121.325 45.5801L122.408 46.2051L120.533 49.4527L119.45 48.8277ZM116.995 43.0801L118.87 39.8325L124.283 42.9575L123.658 44.0401L119.328 41.5401L118.703 42.6226L121.95 44.4976L121.325 45.5801L116.995 43.0801Z" fill="#161616" fill-opacity="0.4"/>
<path d="M88.25 42V40.75H92V42H88.25ZM92 40.75V38.25H93.25V40.75H92ZM87 40.75V35.75H88.25V37H92V38.25H88.25V40.75H87ZM88.25 35.75V34.5H89.5V35.75H88.25ZM89.5 34.5V33.25H92V34.5H89.5Z" fill="#161616" fill-opacity="0.4"/>
<path d="M132.732 127L133.815 127.625L132.565 129.79L136.895 132.29L137.52 131.208L138.602 131.833L137.977 132.915L139.06 133.54L138.435 134.623L131.94 130.873L130.69 133.038L129.607 132.413L132.732 127Z" fill="#161616" fill-opacity="0.4"/>
<path d="M121.596 140.655L122.846 142.82L121.764 143.445L121.139 142.363L117.891 144.238L118.516 145.32L117.434 145.945L116.184 143.78L121.596 140.655ZM121.764 143.445L122.389 144.528L121.306 145.153L120.681 144.07L121.764 143.445ZM121.306 145.153L121.931 146.235L119.766 147.485L119.141 146.403L121.306 145.153ZM124.721 146.068L125.346 147.15L124.264 147.775L123.639 146.693L124.721 146.068ZM119.766 147.485L121.016 149.65L119.934 150.275L118.684 148.11L119.766 147.485ZM124.264 147.775L124.889 148.858L121.641 150.733L121.016 149.65L124.264 147.775Z" fill="#161616" fill-opacity="0.4"/>
<path d="M35.4063 122.037L34.1989 122.361L33.5518 119.946L34.7592 119.623L35.4063 122.037ZM33.5518 119.946L32.3444 120.27L32.0209 119.062L33.2283 118.739L33.5518 119.946ZM30.9002 124.539L28.4854 125.186L28.1618 123.979L30.5767 123.332L30.9002 124.539ZM32.0209 119.062L30.8135 119.386L31.7841 123.008L30.5767 123.332L29.6061 119.709L27.1913 120.356L26.8678 119.149L31.6974 117.855L32.0209 119.062ZM28.1618 123.979L26.9544 124.302L25.9839 120.68L27.1913 120.356L28.1618 123.979Z" fill="#161616" fill-opacity="0.4"/>
<path d="M30 107L28.75 107L28.75 104.5L23.75 104.5L23.75 105.75L22.5 105.75L22.5 104.5L21.25 104.5L21.25 103.25L28.75 103.25L28.75 100.75L30 100.75L30 107ZM30 99.5L28.75 99.5L28.75 97L23.75 97L23.75 98.25L22.5 98.25L22.5 97L21.25 97L21.25 95.75L28.75 95.75L28.75 93.25L30 93.25L30 99.5Z" fill="#161616" fill-opacity="0.4"/>
</svg>
