<svg width="175" height="190" viewBox="0 0 175 190" fill="none" xmlns="http://www.w3.org/2000/svg">
<path d="M164.116 74.8952L106.821 18.4313L31.201 39.2808L11.0634 114.436L65.9484 170.971L143.978 150.05L164.116 74.8952Z" fill="#EEE1C2" stroke="#120800" stroke-width="4.61756"/>
<path d="M98.7543 48.5378L121.228 134.154M98.7543 48.5378L164.116 74.8952M98.7543 48.5378L106.821 18.4313M98.7543 48.5378L31.201 39.2808M98.7543 48.5378L36.9295 111.566M121.228 134.154L164.116 74.8952M121.228 134.154L36.9295 111.566M121.228 134.154L65.9484 170.971M121.228 134.154L143.978 150.05M164.116 74.8952L106.821 18.4313M164.116 74.8952L143.978 150.05M106.821 18.4313L31.201 39.2808M143.978 150.05L65.9484 170.971M65.9484 170.971L11.0634 114.436M65.9484 170.971L36.9295 111.566M11.0634 114.436L31.201 39.2808M11.0634 114.436L36.9295 111.566M31.201 39.2808L36.9295 111.566" stroke="#120800" stroke-width="4.61756"/>
<path d="M71.0353 103.319L71.6823 100.904L76.512 102.198L79.1002 92.5385L76.6853 91.8915L77.3324 89.4767L79.7472 90.1237L80.3943 87.7089L82.8091 88.356L78.9268 102.845L83.7564 104.139L83.1094 106.554L71.0353 103.319ZM87.939 107.848L88.586 105.433L95.8305 107.374L95.1834 109.789L87.939 107.848ZM86.1712 104.786L87.4653 99.9564L89.8801 100.603L88.586 105.433L86.1712 104.786ZM95.8305 107.374L97.1246 102.545L99.5394 103.192L98.2453 108.021L95.8305 107.374ZM89.8801 100.603L90.5272 98.1886L97.7716 100.13L97.1246 102.545L89.8801 100.603ZM88.1124 97.5415L89.4065 92.7119L91.8213 93.359L90.5272 98.1886L88.1124 97.5415ZM97.7716 100.13L99.0657 95.3001L101.481 95.9472L100.186 100.777L97.7716 100.13ZM91.8213 93.359L92.4683 90.9441L99.7128 92.8853L99.0657 95.3001L91.8213 93.359Z" fill="#120800"/>
<path d="M117.934 82.9039L122.764 81.6098L123.411 84.0246L120.996 84.6717L122.937 91.9161L125.352 91.2691L125.999 93.6839L121.169 94.978L117.934 82.9039ZM123.411 84.0246L125.826 83.3776L126.473 85.7924L124.058 86.4395L123.411 84.0246ZM126.473 85.7924L128.888 85.1454L130.182 89.975L127.767 90.622L126.473 85.7924ZM130.008 79.6687L132.423 79.0216L133.07 81.4364L130.655 82.0835L130.008 79.6687ZM130.182 89.975L135.011 88.6809L135.658 91.0957L130.829 92.3898L130.182 89.975ZM133.07 81.4364L135.485 80.7894L137.426 88.0338L135.011 88.6809L133.07 81.4364Z" fill="#161616" fill-opacity="0.4"/>
<path d="M81.2503 132.099L80.6033 134.514L73.3588 132.573L74.0059 130.158L81.2503 132.099ZM83.0181 135.161L82.3711 137.576L79.9562 136.929L80.6033 134.514L83.0181 135.161ZM73.3588 132.573L71.4177 139.817L69.0029 139.17L70.944 131.926L73.3588 132.573ZM81.077 142.405L79.1358 149.65L67.0617 146.414L67.7088 144L77.3681 146.588L78.0151 144.173L70.7707 142.232L71.4177 139.817L81.077 142.405Z" fill="#161616" fill-opacity="0.4"/>
<path d="M52.1421 81.355L50.3744 79.5873L53.9099 76.0517L46.8388 68.9807L45.0711 70.7484L43.3033 68.9807L45.0711 67.2129L43.3033 65.4451L45.0711 63.6774L55.6777 74.284L59.2132 70.7484L60.981 72.5162L52.1421 81.355ZM62.7487 70.7484L59.2132 67.2129L60.981 65.4451L62.7487 67.2129L68.052 61.9096L66.2843 60.1418L68.052 58.3741L71.5876 61.9096L62.7487 70.7484ZM60.981 65.4451L59.2132 63.6774L60.981 61.9096L62.7487 63.6774L60.981 65.4451ZM60.981 61.9096L59.2132 60.1418L62.7487 56.6063L64.5165 58.3741L60.981 61.9096ZM53.9099 61.9096L52.1421 60.1418L53.9099 58.3741L55.6777 60.1418L53.9099 61.9096ZM62.7487 56.6063L59.2132 53.0708L60.981 51.303L64.5165 54.8385L62.7487 56.6063ZM53.9099 58.3741L52.1421 56.6063L57.4454 51.303L59.2132 53.0708L53.9099 58.3741Z" fill="#161616" fill-opacity="0.4"/>
<path d="M112.98 46.5353L114.855 43.2877L115.937 43.9127L114.062 47.1603L112.98 46.5353ZM115.937 43.9127L116.562 42.8301L117.645 43.4551L117.02 44.5377L115.937 43.9127ZM117.645 43.4551L118.895 41.2901L115.647 39.4151L115.022 40.4976L113.94 39.8726L115.19 37.7075L120.602 40.8325L118.727 44.0801L117.645 43.4551Z" fill="#161616" fill-opacity="0.4"/>
<path d="M82 42V40.75H84.5V35.75H83.25V34.5H84.5V33.25H85.75V40.75H88.25V42H82ZM90.75 42V40.75H94.5V42H90.75ZM92 38.25V37H93.25V38.25H92ZM89.5 40.75V34.5H90.75V38.25H92V39.5H90.75V40.75H89.5ZM94.5 40.75V37H93.25V35.75H94.5V34.5H95.75V40.75H94.5ZM90.75 34.5V33.25H94.5V34.5H90.75Z" fill="#161616" fill-opacity="0.4"/>
<path d="M135.232 123L136.315 123.625L135.065 125.79L139.395 128.29L140.02 127.208L141.102 127.833L140.477 128.915L141.56 129.54L140.935 130.623L134.44 126.873L133.19 129.038L132.107 128.413L135.232 123ZM130.857 130.578L131.94 131.203L130.065 134.45L128.982 133.825L130.857 130.578ZM132.565 130.12L133.647 130.745L133.022 131.828L131.94 131.203L132.565 130.12ZM130.065 134.45L132.23 135.7L131.605 136.783L129.44 135.533L130.065 134.45ZM133.48 133.535L134.562 134.16L133.312 136.325L132.23 135.7L133.48 133.535ZM136.895 132.62L137.977 133.245L137.352 134.328L136.27 133.703L136.895 132.62ZM133.312 136.325L135.477 137.575L134.852 138.658L132.687 137.408L133.312 136.325ZM137.352 134.328L138.435 134.953L136.56 138.2L135.477 137.575L137.352 134.328Z" fill="#161616" fill-opacity="0.4"/>
<path d="M122.99 139.732L123.615 140.815L121.45 142.065L123.95 146.395L125.033 145.77L125.658 146.853L124.575 147.478L125.2 148.56L124.118 149.185L120.368 142.69L118.203 143.94L117.578 142.857L122.99 139.732ZM115.413 144.107L116.038 145.19L113.873 146.44L113.248 145.357L115.413 144.107ZM113.873 146.44L114.498 147.522L113.415 148.147L112.79 147.065L113.873 146.44ZM118.995 147.812L120.245 149.978L119.163 150.603L117.913 148.437L118.995 147.812ZM113.415 148.147L114.04 149.23L117.288 147.355L117.913 148.437L114.665 150.312L115.915 152.478L114.833 153.103L112.333 148.772L113.415 148.147ZM119.163 150.603L119.788 151.685L116.54 153.56L115.915 152.478L119.163 150.603Z" fill="#161616" fill-opacity="0.4"/>
<path d="M36.7003 124.868L34.2855 125.515L33.9619 124.307L35.1693 123.984L34.1988 120.361L32.9914 120.685L32.6678 119.478L35.0826 118.831L36.7003 124.868ZM33.9619 124.307L32.7545 124.631L32.431 123.423L33.6384 123.1L33.9619 124.307ZM32.431 123.423L31.2236 123.747L30.5765 121.332L31.7839 121.009L32.431 123.423ZM30.6632 126.485L29.4558 126.809L29.1323 125.601L30.3397 125.278L30.6632 126.485ZM30.5765 121.332L28.1617 121.979L27.8382 120.772L30.253 120.125L30.5765 121.332ZM29.1323 125.601L27.9249 125.925L26.9543 122.303L28.1617 121.979L29.1323 125.601Z" fill="#161616" fill-opacity="0.4"/>
<path d="M25 102.5L23.75 102.5L23.75 101.25L25 101.25L25 102.5ZM23.75 101.25L22.5 101.25L22.5 100L23.75 100L23.75 101.25ZM30 98.75L27.5 98.75L27.5 103.75L25 103.75L25 102.5L26.25 102.5L26.25 98.75L22.5 98.75L22.5 100L21.25 100L21.25 97.5L30 97.5L30 98.75Z" fill="#161616" fill-opacity="0.4"/>
</svg>
