<svg width="175" height="190" viewBox="0 0 175 190" fill="none" xmlns="http://www.w3.org/2000/svg">
<path d="M164.116 74.8953L106.822 18.4314L31.2015 39.2809L11.0639 114.436L65.9489 170.971L143.979 150.05L164.116 74.8953Z" fill="#EEE1C2" stroke="#120800" stroke-width="4.61756"/>
<path d="M98.7548 48.5379L121.228 134.154M98.7548 48.5379L164.116 74.8953M98.7548 48.5379L106.822 18.4314M98.7548 48.5379L31.2015 39.2809M98.7548 48.5379L36.93 111.567M121.228 134.154L164.116 74.8953M121.228 134.154L36.93 111.567M121.228 134.154L65.9489 170.971M121.228 134.154L143.979 150.05M164.116 74.8953L106.822 18.4314M164.116 74.8953L143.979 150.05M106.822 18.4314L31.2015 39.2809M143.979 150.05L65.9489 170.971M65.9489 170.971L11.0639 114.436M65.9489 170.971L36.93 111.567M11.0639 114.436L31.2015 39.2809M11.0639 114.436L36.93 111.567M31.2015 39.2809L36.93 111.567" stroke="#120800" stroke-width="4.61756"/>
<path d="M71.0473 102.768L72.3413 97.9382L74.7562 98.5853L74.1091 101L81.3536 102.941L82.0006 100.526L84.4154 101.173L83.1213 106.003L71.0473 102.768ZM74.7562 98.5853L75.4032 96.1705L77.818 96.8175L77.171 99.2323L74.7562 98.5853ZM77.818 96.8175L78.4651 94.4027L83.2947 95.6968L82.6477 98.1116L77.818 96.8175ZM74.2825 90.6938L74.9295 88.279L77.3444 88.926L76.6973 91.3408L74.2825 90.6938ZM83.2947 95.6968L84.5888 90.8672L87.0036 91.5142L85.7095 96.3438L83.2947 95.6968ZM77.3444 88.926L77.9914 86.5112L85.2358 88.4523L84.5888 90.8672L77.3444 88.926ZM87.951 107.297L88.598 104.882L95.8424 106.824L95.1954 109.238L87.951 107.297ZM92.3069 100.7L92.954 98.285L95.3688 98.932L94.7217 101.347L92.3069 100.7ZM86.1832 104.235L89.4184 92.1613L91.8332 92.8083L89.8921 100.053L92.3069 100.7L91.6599 103.115L89.245 102.468L88.598 104.882L86.1832 104.235ZM95.8424 106.824L97.7836 99.5791L95.3688 98.932L96.0158 96.5172L98.4306 97.1643L99.0777 94.7494L101.492 95.3965L98.2573 107.471L95.8424 106.824ZM91.8332 92.8083L92.4803 90.3935L99.7247 92.3346L99.0777 94.7494L91.8332 92.8083Z" fill="#120800"/>
<path d="M119.471 81.0994L124.3 79.8053L124.947 82.2201L122.532 82.8671L124.474 90.1116L126.888 89.4645L127.535 91.8793L122.706 93.1734L119.471 81.0994ZM124.947 82.2201L127.362 81.573L128.009 83.9878L125.594 84.6349L124.947 82.2201ZM128.009 83.9878L130.424 83.3408L131.718 88.1704L129.303 88.8175L128.009 83.9878ZM131.545 77.8641L133.959 77.2171L134.606 79.6319L132.192 80.2789L131.545 77.8641ZM131.718 88.1704L136.548 86.8763L137.195 89.2911L132.365 90.5852L131.718 88.1704ZM134.606 79.6319L137.021 78.9848L138.962 86.2293L136.548 86.8763L134.606 79.6319Z" fill="#161616" fill-opacity="0.4"/>
<path d="M81.2721 135.669L80.625 138.084L75.7954 136.79L73.2072 146.449L75.622 147.096L74.975 149.511L72.5602 148.864L71.9131 151.279L69.4983 150.632L73.3806 136.143L68.551 134.849L69.198 132.434L81.2721 135.669Z" fill="#161616" fill-opacity="0.4"/>
<path d="M55.5163 75.904L53.7486 74.1362L59.0519 68.8329L60.8196 70.6007L55.5163 75.904ZM51.9808 75.904L48.4453 72.3684L50.213 70.6007L53.7486 74.1362L51.9808 75.904ZM59.0519 68.8329L55.5163 65.2974L57.2841 63.5296L60.8196 67.0651L59.0519 68.8329ZM50.213 70.6007L48.4453 68.8329L53.7486 63.5296L55.5163 65.2974L50.213 70.6007ZM46.6775 70.6007L43.142 67.0651L44.9097 65.2974L48.4453 68.8329L46.6775 70.6007ZM53.7486 63.5296L50.213 59.9941L51.9808 58.2263L55.5163 61.7618L53.7486 63.5296ZM44.9097 65.2974L43.142 63.5296L48.4453 58.2263L50.213 59.9941L44.9097 65.2974Z" fill="#161616" fill-opacity="0.4"/>
<path d="M107.606 45.5832L108.231 44.5007L110.397 45.7507L112.897 41.4206L111.814 40.7956L112.439 39.713L113.522 40.338L114.147 39.2555L115.229 39.8805L111.479 46.3757L113.644 47.6257L113.019 48.7082L107.606 45.5832ZM114.102 49.3332L115.352 47.1682L116.434 47.7932L115.809 48.8757L119.057 50.7507L119.682 49.6682L120.764 50.2932L119.514 52.4582L114.102 49.3332ZM116.434 47.7932L117.059 46.7106L118.142 47.3356L117.517 48.4182L116.434 47.7932ZM118.142 47.3356L118.767 46.2531L120.932 47.5031L120.307 48.5856L118.142 47.3356ZM117.227 43.9206L117.852 42.838L118.934 43.463L118.309 44.5456L117.227 43.9206ZM120.932 47.5031L122.182 45.338L123.264 45.963L122.014 48.1281L120.932 47.5031ZM118.934 43.463L119.559 42.3805L122.807 44.2555L122.182 45.338L118.934 43.463Z" fill="#161616" fill-opacity="0.4"/>
<path d="M77.6064 40.923V39.673H80.1064V34.673H78.8564V33.423H80.1064V32.173H81.3564V39.673H83.8564V40.923H77.6064ZM86.3564 40.923V39.673H90.1064V40.923H86.3564ZM87.6064 37.173V35.923H88.8564V37.173H87.6064ZM85.1064 39.673V33.423H86.3564V37.173H87.6064V38.423H86.3564V39.673H85.1064ZM90.1064 39.673V35.923H88.8564V34.673H90.1064V33.423H91.3564V39.673H90.1064ZM86.3564 33.423V32.173H90.1064V33.423H86.3564Z" fill="#161616" fill-opacity="0.4"/>
<path d="M138.839 119.923L139.921 120.548L138.671 122.713L143.001 125.213L143.626 124.131L144.709 124.756L144.084 125.838L145.166 126.463L144.541 127.546L138.046 123.796L136.796 125.961L135.714 125.336L138.839 119.923ZM134.464 127.501L135.546 128.126L133.671 131.373L132.589 130.748L134.464 127.501ZM136.171 127.043L138.336 128.293L137.711 129.376L135.546 128.126L136.171 127.043ZM133.671 131.373L135.836 132.623L135.211 133.706L133.046 132.456L133.671 131.373ZM137.711 129.376L138.794 130.001L136.919 133.248L135.836 132.623L137.711 129.376ZM139.419 128.918L141.584 130.168L140.959 131.251L138.794 130.001L139.419 128.918ZM136.919 133.248L139.084 134.498L138.459 135.581L136.294 134.331L136.919 133.248ZM140.959 131.251L142.041 131.876L140.166 135.123L139.084 134.498L140.959 131.251Z" fill="#161616" fill-opacity="0.4"/>
<path d="M122.014 146.61L122.639 147.693L121.557 148.318L120.932 147.235L122.014 146.61ZM121.557 148.318L122.182 149.4L121.099 150.025L120.474 148.943L121.557 148.318ZM116.267 144.155L117.517 146.32L121.847 143.82L123.097 145.985L122.014 146.61L121.389 145.528L118.142 147.403L120.017 150.65L121.099 150.025L121.724 151.108L119.559 152.358L115.184 144.78L116.267 144.155Z" fill="#161616" fill-opacity="0.4"/>
<path d="M37.0125 123.96L35.8051 124.284L34.8345 120.662L36.0419 120.338L37.0125 123.96ZM34.8345 120.662L32.4197 121.309L32.0962 120.101L34.511 119.454L34.8345 120.662ZM36.1286 125.491L31.299 126.785L30.9755 125.578L32.1829 125.254L31.2123 121.632L32.4197 121.309L33.3903 124.931L35.8051 124.284L36.1286 125.491ZM30.9755 125.578L29.768 125.902L29.4445 124.694L30.6519 124.371L30.9755 125.578ZM29.4445 124.694L28.2371 125.018L27.5901 122.603L28.7975 122.279L29.4445 124.694Z" fill="#161616" fill-opacity="0.4"/>
<path d="M29.6064 103.923L28.3564 103.923L28.3564 101.423L23.3564 101.423L23.3564 102.673L22.1064 102.673L22.1064 101.423L20.8564 101.423L20.8564 100.173L28.3564 100.173L28.3564 97.673L29.6064 97.673L29.6064 103.923ZM29.6064 95.173L28.3564 95.173L28.3564 91.423L29.6064 91.423L29.6064 95.173ZM28.3564 91.423L25.8564 91.423L25.8564 90.173L28.3564 90.173L28.3564 91.423ZM28.3564 96.423L23.3564 96.423L23.3564 95.173L24.6064 95.173L24.6064 91.423L25.8564 91.423L25.8564 95.173L28.3564 95.173L28.3564 96.423ZM23.3564 95.173L22.1064 95.173L22.1064 93.923L23.3564 93.923L23.3564 95.173ZM22.1064 93.923L20.8564 93.923L20.8564 91.423L22.1064 91.423L22.1064 93.923Z" fill="#161616" fill-opacity="0.4"/>
</svg>
