<svg width="175" height="190" viewBox="0 0 175 190" fill="none" xmlns="http://www.w3.org/2000/svg">
<path d="M164.116 74.8952L106.821 18.4313L31.201 39.2808L11.0634 114.436L65.9484 170.971L143.978 150.05L164.116 74.8952Z" fill="#EEE1C2" stroke="#120800" stroke-width="4.61756"/>
<path d="M98.7543 48.5378L121.228 134.154M98.7543 48.5378L164.116 74.8952M98.7543 48.5378L106.821 18.4313M98.7543 48.5378L31.201 39.2808M98.7543 48.5378L36.9295 111.566M121.228 134.154L164.116 74.8952M121.228 134.154L36.9295 111.566M121.228 134.154L65.9484 170.971M121.228 134.154L143.978 150.05M164.116 74.8952L106.821 18.4313M164.116 74.8952L143.978 150.05M106.821 18.4313L31.201 39.2808M143.978 150.05L65.9484 170.971M65.9484 170.971L11.0634 114.436M65.9484 170.971L36.9295 111.566M11.0634 114.436L31.201 39.2808M11.0634 114.436L36.9295 111.566M31.201 39.2808L36.9295 111.566" stroke="#120800" stroke-width="4.61756"/>
<path d="M77.0353 105.319L77.6823 102.904L82.512 104.198L85.1002 94.5385L82.6853 93.8915L83.3324 91.4767L85.7472 92.1237L86.3943 89.7089L88.8091 90.356L84.9268 104.845L89.7564 106.139L89.1094 108.554L77.0353 105.319Z" fill="#120800"/>
<path d="M116.864 75.1764L119.278 74.5293L120.573 79.359L130.232 76.7708L129.585 74.356L132 73.7089L132.647 76.1237L135.061 75.4767L135.708 77.8915L121.22 81.7738L122.514 86.6034L120.099 87.2505L116.864 75.1764ZM121.393 92.0801L123.808 91.433L125.102 96.2627L122.687 96.9097L121.393 92.0801ZM125.102 96.2627L127.517 95.6156L128.164 98.0304L125.749 98.6775L125.102 96.2627ZM130.405 87.0771L135.235 85.783L135.882 88.1978L131.052 89.4919L130.405 87.0771ZM128.164 98.0304L130.579 97.3834L128.637 90.1389L131.052 89.4919L132.993 96.7363L137.823 95.4422L138.47 97.8571L128.811 100.445L128.164 98.0304ZM135.882 88.1978L138.297 87.5507L140.238 94.7952L137.823 95.4422L135.882 88.1978Z" fill="#161616" fill-opacity="0.4"/>
<path d="M76.2683 144.681L75.6213 147.096L73.2065 146.449L73.8535 144.034L76.2683 144.681ZM73.2065 146.449L72.5594 148.864L70.1446 148.217L70.7917 145.802L73.2065 146.449ZM71.6121 133.081L70.318 137.91L79.9773 140.498L78.6832 145.328L76.2683 144.681L76.9154 142.266L69.671 140.325L67.7298 147.569L70.1446 148.217L69.4976 150.631L64.6679 149.337L69.1973 132.434L71.6121 133.081Z" fill="#161616" fill-opacity="0.4"/>
<path d="M55.2836 76.7428L49.9803 71.4395L51.7481 69.6718L57.0514 74.9751L55.2836 76.7428ZM51.7481 69.6718L49.9803 67.904L51.7481 66.1362L53.5159 67.904L51.7481 69.6718ZM51.7481 66.1362L48.2126 62.6007L42.9093 67.904L44.677 69.6718L42.9093 71.4395L39.3737 67.904L48.2126 59.0652L53.5159 64.3685L51.7481 66.1362Z" fill="#161616" fill-opacity="0.4"/>
<path d="M108.689 46.2081L109.314 45.1256L112.561 47.0006L111.936 48.0831L108.689 46.2081ZM108.231 44.5006L108.856 43.418L109.939 44.043L109.314 45.1256L108.231 44.5006ZM112.561 47.0006L113.811 44.8355L114.894 45.4605L113.644 47.6256L112.561 47.0006ZM111.646 43.5855L112.271 42.503L114.436 43.753L113.811 44.8355L111.646 43.5855ZM110.731 40.1704L111.356 39.0879L112.439 39.7129L111.814 40.7954L110.731 40.1704ZM114.436 43.753L115.686 41.5879L116.769 42.2129L115.519 44.378L114.436 43.753ZM112.439 39.7129L113.064 38.6304L116.311 40.5054L115.686 41.5879L112.439 39.7129Z" fill="#161616" fill-opacity="0.4"/>
<path d="M77.6062 40.9229V39.6729H80.1062V34.6729H78.8562V33.4229H80.1062V32.1729H81.3562V39.6729H83.8562V40.9229H77.6062ZM85.1062 40.9229V39.6729H87.6062V34.6729H86.3562V33.4229H87.6062V32.1729H88.8562V39.6729H91.3562V40.9229H85.1062Z" fill="#161616" fill-opacity="0.4"/>
<path d="M135.107 128.083L136.19 128.708L134.94 130.873L133.857 130.248L135.107 128.083ZM134.94 130.873L136.022 131.498L135.397 132.58L134.315 131.955L134.94 130.873ZM140.062 129.5L142.227 130.75L141.602 131.833L139.437 130.583L140.062 129.5ZM135.397 132.58L136.48 133.205L138.355 129.958L139.437 130.583L137.562 133.83L139.727 135.08L139.102 136.163L134.772 133.663L135.397 132.58ZM141.602 131.833L142.685 132.458L140.81 135.705L139.727 135.08L141.602 131.833Z" fill="#161616" fill-opacity="0.4"/>
<path d="M121.596 140.655L122.221 141.737L120.056 142.987L122.556 147.317L123.639 146.692L124.264 147.775L123.181 148.4L123.806 149.482L122.724 150.107L118.974 143.612L116.809 144.862L116.184 143.78L121.596 140.655ZM115.101 144.405L115.726 145.487L113.561 146.737L116.061 151.067L117.144 150.442L117.769 151.525L116.686 152.15L117.311 153.232L116.229 153.857L112.479 147.362L110.314 148.612L109.689 147.53L115.101 144.405Z" fill="#161616" fill-opacity="0.4"/>
<path d="M37.0125 123.96L35.8051 124.284L34.8345 120.662L36.0419 120.338L37.0125 123.96ZM36.1286 125.491L34.9212 125.815L34.5977 124.607L35.8051 124.284L36.1286 125.491ZM34.8345 120.662L31.2123 121.632L30.8888 120.425L34.511 119.454L34.8345 120.662ZM32.5064 126.462L28.8842 127.432L27.2665 121.395L28.474 121.072L29.768 125.901L30.9755 125.578L30.0049 121.956L31.2123 121.632L32.5064 126.462Z" fill="#161616" fill-opacity="0.4"/>
<path d="M30 107L28.75 107L28.75 104.5L23.75 104.5L23.75 105.75L22.5 105.75L22.5 104.5L21.25 104.5L21.25 103.25L28.75 103.25L28.75 100.75L30 100.75L30 107ZM30 98.25L28.75 98.25L28.75 94.5L30 94.5L30 98.25ZM28.75 99.5L27.5 99.5L27.5 98.25L28.75 98.25L28.75 99.5ZM28.75 94.5L25 94.5L25 93.25L28.75 93.25L28.75 94.5ZM25 99.5L21.25 99.5L21.25 93.25L22.5 93.25L22.5 98.25L23.75 98.25L23.75 94.5L25 94.5L25 99.5Z" fill="#161616" fill-opacity="0.4"/>
</svg>
