<svg width="175" height="190" viewBox="0 0 175 190" fill="none" xmlns="http://www.w3.org/2000/svg">
<path d="M164.116 74.8952L106.821 18.4313L31.201 39.2808L11.0634 114.436L65.9484 170.971L143.978 150.05L164.116 74.8952Z" fill="#EEE1C2" stroke="#120800" stroke-width="4.61756"/>
<path d="M98.7543 48.5378L121.228 134.154M98.7543 48.5378L164.116 74.8952M98.7543 48.5378L106.821 18.4313M98.7543 48.5378L31.201 39.2808M98.7543 48.5378L36.9295 111.566M121.228 134.154L164.116 74.8952M121.228 134.154L36.9295 111.566M121.228 134.154L65.9484 170.971M121.228 134.154L143.978 150.05M164.116 74.8952L106.821 18.4313M164.116 74.8952L143.978 150.05M106.821 18.4313L31.201 39.2808M143.978 150.05L65.9484 170.971M65.9484 170.971L11.0634 114.436M65.9484 170.971L36.9295 111.566M11.0634 114.436L31.201 39.2808M11.0634 114.436L36.9295 111.566M31.201 39.2808L36.9295 111.566" stroke="#120800" stroke-width="4.61756"/>
<path d="M79.4501 105.966L80.0972 103.551L84.9268 104.845L84.2797 107.26L79.4501 105.966ZM84.9268 104.845L85.5738 102.43L87.9886 103.077L87.3416 105.492L84.9268 104.845ZM79.6235 95.6593L80.9176 90.8296L83.3324 91.4767L82.0383 96.3063L79.6235 95.6593ZM87.9886 103.077L88.6357 100.662L81.3912 98.7211L82.0383 96.3063L89.2827 98.2474L90.5768 93.4178L92.9916 94.0649L90.4035 103.724L87.9886 103.077ZM83.3324 91.4767L83.9794 89.0619L91.2239 91.003L90.5768 93.4178L83.3324 91.4767Z" fill="#120800"/>
<path d="M114.864 75.1764L117.278 74.5293L118.573 79.359L128.232 76.7708L127.585 74.356L130 73.7089L130.647 76.1237L133.061 75.4767L133.708 77.8915L119.22 81.7738L120.514 86.6034L118.099 87.2505L114.864 75.1764ZM119.393 92.0801L121.808 91.433L123.749 98.6775L121.334 99.3245L119.393 92.0801ZM121.161 89.0182L125.99 87.7241L126.637 90.1389L121.808 91.433L121.161 89.0182ZM123.749 98.6775L128.579 97.3834L129.226 99.7982L124.396 101.092L123.749 98.6775ZM126.637 90.1389L129.052 89.4919L130.993 96.7363L128.579 97.3834L126.637 90.1389ZM128.405 87.0771L133.235 85.783L133.882 88.1978L129.052 89.4919L128.405 87.0771ZM130.993 96.7363L135.823 95.4422L136.47 97.8571L131.64 99.1512L130.993 96.7363ZM133.882 88.1978L136.297 87.5507L138.238 94.7952L135.823 95.4422L133.882 88.1978Z" fill="#161616" fill-opacity="0.4"/>
<path d="M91.1542 136.629L90.5071 139.044L85.6775 137.749L83.0893 147.409L85.5041 148.056L84.8571 150.471L82.4422 149.824L81.7952 152.238L79.3804 151.591L83.2627 137.102L78.433 135.808L79.0801 133.394L91.1542 136.629ZM74.2505 132.099L73.6034 134.514L66.359 132.573L67.006 130.158L74.2505 132.099ZM76.0182 135.161L75.3712 137.576L72.9564 136.929L73.6034 134.514L76.0182 135.161ZM66.359 132.573L64.4178 139.818L62.003 139.17L63.9442 131.926L66.359 132.573ZM74.0771 142.406L72.1359 149.65L60.0619 146.415L60.7089 144L70.3682 146.588L71.0152 144.173L63.7708 142.232L64.4178 139.818L74.0771 142.406Z" fill="#161616" fill-opacity="0.4"/>
<path d="M52.1421 81.355L50.3744 79.5873L53.9099 76.0517L46.8388 68.9807L45.0711 70.7484L43.3033 68.9807L45.0711 67.2129L43.3033 65.4451L45.0711 63.6774L55.6777 74.284L59.2132 70.7484L60.981 72.5162L52.1421 81.355ZM64.5165 68.9807L62.7487 67.2129L68.052 61.9096L69.8198 63.6774L64.5165 68.9807ZM60.981 61.9096L59.2132 60.1418L60.981 58.3741L62.7487 60.1418L60.981 61.9096ZM60.981 68.9807L52.1421 60.1418L53.9099 58.3741L59.2132 63.6774L60.981 61.9096L62.7487 63.6774L60.981 65.4451L62.7487 67.2129L60.981 68.9807ZM68.052 61.9096L62.7487 56.6063L60.981 58.3741L59.2132 56.6063L60.981 54.8385L59.2132 53.0708L60.981 51.303L69.8198 60.1418L68.052 61.9096ZM53.9099 58.3741L52.1421 56.6063L57.4454 51.303L59.2132 53.0708L53.9099 58.3741Z" fill="#161616" fill-opacity="0.4"/>
<path d="M108.689 46.2081L109.314 45.1256L112.561 47.0006L111.936 48.0831L108.689 46.2081ZM108.231 44.5006L108.856 43.418L109.939 44.043L109.314 45.1256L108.231 44.5006ZM112.561 47.0006L113.811 44.8355L114.894 45.4605L113.644 47.6256L112.561 47.0006ZM111.646 43.5855L112.271 42.503L114.436 43.753L113.811 44.8355L111.646 43.5855ZM110.731 40.1704L111.356 39.0879L112.439 39.7129L111.814 40.7954L110.731 40.1704ZM114.436 43.753L115.686 41.5879L116.769 42.2129L115.519 44.378L114.436 43.753ZM112.439 39.7129L113.064 38.6304L116.311 40.5054L115.686 41.5879L112.439 39.7129Z" fill="#161616" fill-opacity="0.4"/>
<path d="M83 41V39.75H85.5V34.75H84.25V33.5H85.5V32.25H86.75V39.75H89.25V41H83ZM91.75 41V39.75H95.5V41H91.75ZM95.5 39.75V37.25H96.75V39.75H95.5ZM90.5 39.75V34.75H91.75V36H95.5V37.25H91.75V39.75H90.5ZM91.75 34.75V33.5H93V34.75H91.75ZM93 33.5V32.25H95.5V33.5H93Z" fill="#161616" fill-opacity="0.4"/>
<path d="M137.232 121L138.315 121.625L137.065 123.79L141.395 126.29L142.02 125.208L143.102 125.833L142.477 126.915L143.56 127.54L142.935 128.623L136.44 124.873L135.19 127.038L134.107 126.413L137.232 121ZM132.857 128.578L133.94 129.203L132.065 132.45L130.982 131.825L132.857 128.578ZM134.565 128.12L136.73 129.37L136.105 130.453L133.94 129.203L134.565 128.12ZM132.065 132.45L134.23 133.7L133.605 134.783L131.44 133.533L132.065 132.45ZM136.105 130.453L137.187 131.078L135.312 134.325L134.23 133.7L136.105 130.453ZM137.812 129.995L139.977 131.245L139.352 132.328L137.187 131.078L137.812 129.995ZM135.312 134.325L137.477 135.575L136.852 136.658L134.687 135.408L135.312 134.325ZM139.352 132.328L140.435 132.953L138.56 136.2L137.477 135.575L139.352 132.328Z" fill="#161616" fill-opacity="0.4"/>
<path d="M123.014 145.61L123.639 146.693L122.556 147.318L121.931 146.235L123.014 145.61ZM122.556 147.318L123.181 148.4L122.099 149.025L121.474 147.943L122.556 147.318ZM117.266 143.155L118.516 145.32L122.846 142.82L124.096 144.985L123.014 145.61L122.389 144.528L119.141 146.403L121.016 149.65L122.099 149.025L122.724 150.108L120.559 151.358L116.184 143.78L117.266 143.155Z" fill="#161616" fill-opacity="0.4"/>
<path d="M38.5416 129.007L37.3342 129.33L36.6871 126.915L31.8575 128.209L32.181 129.417L30.9736 129.74L30.6501 128.533L29.4427 128.856L29.1192 127.649L36.3636 125.708L35.7166 123.293L36.924 122.97L38.5416 129.007ZM36.6004 121.762L34.1856 122.409L33.8621 121.202L35.0695 120.878L34.0989 117.256L32.8915 117.58L32.568 116.372L34.9828 115.725L36.6004 121.762ZM33.8621 121.202L32.6547 121.525L32.3312 120.318L33.5386 119.994L33.8621 121.202ZM32.3312 120.318L31.1238 120.641L30.4767 118.227L31.6841 117.903L32.3312 120.318ZM30.5634 123.38L29.356 123.703L29.0325 122.496L30.2399 122.172L30.5634 123.38ZM30.4767 118.227L28.0619 118.874L27.7384 117.666L30.1532 117.019L30.4767 118.227ZM29.0325 122.496L27.8251 122.819L26.8545 119.197L28.0619 118.874L29.0325 122.496Z" fill="#161616" fill-opacity="0.4"/>
<path d="M30 107L28.75 107L28.75 104.5L23.75 104.5L23.75 105.75L22.5 105.75L22.5 104.5L21.25 104.5L21.25 103.25L28.75 103.25L28.75 100.75L30 100.75L30 107ZM30 97L26.25 97L26.25 95.75L30 95.75L30 97ZM26.25 95.75L25 95.75L25 94.5L26.25 94.5L26.25 95.75ZM25 94.5L22.5 94.5L22.5 98.25L23.75 98.25L23.75 99.5L21.25 99.5L21.25 93.25L25 93.25L25 94.5Z" fill="#161616" fill-opacity="0.4"/>
</svg>
