<svg width="175" height="190" viewBox="0 0 175 190" fill="none" xmlns="http://www.w3.org/2000/svg">
<path d="M164.116 74.8952L106.821 18.4313L31.201 39.2808L11.0634 114.436L65.9484 170.971L143.978 150.05L164.116 74.8952Z" fill="#EEE1C2" stroke="#120800" stroke-width="4.61756"/>
<path d="M98.7543 48.5378L121.228 134.154M98.7543 48.5378L164.116 74.8952M98.7543 48.5378L106.821 18.4313M98.7543 48.5378L31.201 39.2808M98.7543 48.5378L36.9295 111.566M121.228 134.154L164.116 74.8952M121.228 134.154L36.9295 111.566M121.228 134.154L65.9484 170.971M121.228 134.154L143.978 150.05M164.116 74.8952L106.821 18.4313M164.116 74.8952L143.978 150.05M106.821 18.4313L31.201 39.2808M143.978 150.05L65.9484 170.971M65.9484 170.971L11.0634 114.436M65.9484 170.971L36.9295 111.566M11.0634 114.436L31.201 39.2808M11.0634 114.436L36.9295 111.566M31.201 39.2808L36.9295 111.566" stroke="#120800" stroke-width="4.61756"/>
<path d="M71.0353 103.319L71.6823 100.904L76.512 102.198L79.1002 92.5385L76.6853 91.8915L77.3324 89.4767L79.7472 90.1237L80.3943 87.7089L82.8091 88.356L78.9268 102.845L83.7564 104.139L83.1094 106.554L71.0353 103.319ZM90.5272 98.1886L91.1742 95.7738L93.589 96.4208L92.942 98.8356L90.5272 98.1886ZM93.589 96.4208L94.2361 94.006L96.6509 94.6531L96.0039 97.0679L93.589 96.4208ZM95.1834 109.789L96.4775 104.959L86.8183 102.371L88.1124 97.5415L90.5272 98.1886L89.8801 100.603L97.1246 102.545L99.0657 95.3001L96.6509 94.6531L97.298 92.2382L102.128 93.5323L97.5982 110.436L95.1834 109.789Z" fill="#120800"/>
<path d="M117.511 85.5912L119.925 84.9441L121.867 92.1886L119.452 92.8356L117.511 85.5912ZM121.867 92.1886L126.696 90.8945L127.343 93.3093L122.514 94.6034L121.867 92.1886ZM119.278 82.5293L128.938 79.9411L129.585 82.356L127.17 83.003L129.111 90.2474L126.696 90.8945L124.755 83.6501L119.925 84.9441L119.278 82.5293ZM129.585 82.356L132 81.7089L132.647 84.1237L130.232 84.7708L129.585 82.356ZM132.647 84.1237L135.061 83.4767L136.356 88.3063L133.941 88.9534L132.647 84.1237Z" fill="#161616" fill-opacity="0.4"/>
<path d="M92.1542 135.629L90.8601 140.458L88.4453 139.811L89.0923 137.397L81.8479 135.455L81.2008 137.87L78.786 137.223L80.0801 132.394L92.1542 135.629ZM88.4453 139.811L87.7982 142.226L85.3834 141.579L86.0304 139.164L88.4453 139.811ZM85.3834 141.579L84.7363 143.994L79.9067 142.7L80.5538 140.285L85.3834 141.579ZM88.9189 147.703L88.2719 150.118L85.8571 149.471L86.5041 147.056L88.9189 147.703ZM79.9067 142.7L78.6126 147.529L76.1978 146.882L77.4919 142.053L79.9067 142.7ZM85.8571 149.471L85.21 151.885L77.9656 149.944L78.6126 147.529L85.8571 149.471ZM75.2505 131.099L74.6034 133.514L67.359 131.573L68.006 129.158L75.2505 131.099ZM70.8945 137.697L70.2475 140.112L67.8326 139.465L68.4797 137.05L70.8945 137.697ZM77.0182 134.161L73.783 146.235L71.3682 145.588L73.3093 138.344L70.8945 137.697L71.5416 135.282L73.9564 135.929L74.6034 133.514L77.0182 134.161ZM67.359 131.573L65.4178 138.818L67.8326 139.465L67.1856 141.879L64.7708 141.232L64.1237 143.647L61.7089 143L64.9442 130.926L67.359 131.573ZM71.3682 145.588L70.7211 148.003L63.4767 146.062L64.1237 143.647L71.3682 145.588Z" fill="#161616" fill-opacity="0.4"/>
<path d="M50.8388 66.9097L49.0711 65.142L50.8388 63.3742L52.6066 65.142L50.8388 66.9097ZM50.8388 63.3742L49.0711 61.6064L50.8388 59.8387L52.6066 61.6064L50.8388 63.3742ZM63.2132 68.6775L59.6777 65.142L52.6066 72.213L49.0711 68.6775L50.8388 66.9097L52.6066 68.6775L57.9099 63.3742L52.6066 58.0709L50.8388 59.8387L49.0711 58.0709L52.6066 54.5354L64.981 66.9097L63.2132 68.6775Z" fill="#161616" fill-opacity="0.4"/>
<path d="M109.083 44.2853L109.708 43.2027L111.873 44.4527L111.248 45.5353L109.083 44.2853ZM111.873 44.4527L112.498 43.3702L113.58 43.9952L112.955 45.0777L111.873 44.4527ZM110.5 39.3301L111.75 37.1651L112.833 37.7901L111.583 39.9551L110.5 39.3301ZM113.58 43.9952L114.205 42.9127L110.958 41.0377L111.583 39.9551L114.83 41.8301L116.08 39.6651L117.163 40.2901L114.663 44.6202L113.58 43.9952ZM112.833 37.7901L113.458 36.7075L116.705 38.5825L116.08 39.6651L112.833 37.7901Z" fill="#161616" fill-opacity="0.4"/>
<path d="M80 41V39.75H82.5V34.75H81.25V33.5H82.5V32.25H83.75V39.75H86.25V41H80ZM88.75 41V39.75H92.5V41H88.75ZM92.5 39.75V37.25H93.75V39.75H92.5ZM87.5 39.75V34.75H88.75V36H92.5V37.25H88.75V39.75H87.5ZM88.75 34.75V33.5H90V34.75H88.75ZM90 33.5V32.25H92.5V33.5H90Z" fill="#161616" fill-opacity="0.4"/>
<path d="M136.232 122L137.315 122.625L136.065 124.79L140.395 127.29L141.02 126.208L142.102 126.833L141.477 127.915L142.56 128.54L141.935 129.623L135.44 125.873L134.19 128.038L133.107 127.413L136.232 122ZM131.857 129.578L132.94 130.203L131.065 133.45L129.982 132.825L131.857 129.578ZM133.565 129.12L135.73 130.37L135.105 131.453L132.94 130.203L133.565 129.12ZM131.065 133.45L133.23 134.7L132.605 135.783L130.44 134.533L131.065 133.45ZM135.105 131.453L136.187 132.078L134.312 135.325L133.23 134.7L135.105 131.453ZM136.812 130.995L138.977 132.245L138.352 133.328L136.187 132.078L136.812 130.995ZM134.312 135.325L136.477 136.575L135.852 137.658L133.687 136.408L134.312 135.325ZM138.352 133.328L139.435 133.953L137.56 137.2L136.477 136.575L138.352 133.328Z" fill="#161616" fill-opacity="0.4"/>
<path d="M123.014 145.61L123.639 146.693L122.556 147.318L121.931 146.235L123.014 145.61ZM122.556 147.318L123.181 148.4L122.099 149.025L121.474 147.943L122.556 147.318ZM117.266 143.155L118.516 145.32L122.846 142.82L124.096 144.985L123.014 145.61L122.389 144.528L119.141 146.403L121.016 149.65L122.099 149.025L122.724 150.108L120.559 151.358L116.184 143.78L117.266 143.155Z" fill="#161616" fill-opacity="0.4"/>
<path d="M35.7298 123.245L33.315 123.892L32.9915 122.684L34.1989 122.361L33.2283 118.739L32.0209 119.062L31.6974 117.855L34.1122 117.208L35.7298 123.245ZM32.9915 122.684L31.7841 123.008L31.4605 121.801L32.668 121.477L32.9915 122.684ZM31.4605 121.801L30.2531 122.124L29.6061 119.709L30.8135 119.386L31.4605 121.801ZM29.6928 124.862L28.4854 125.186L28.1618 123.979L29.3693 123.655L29.6928 124.862ZM29.6061 119.709L27.1913 120.356L26.8678 119.149L29.2826 118.502L29.6061 119.709ZM28.1618 123.979L26.9544 124.302L25.9839 120.68L27.1913 120.356L28.1618 123.979Z" fill="#161616" fill-opacity="0.4"/>
<path d="M30 107L28.75 107L28.75 104.5L23.75 104.5L23.75 105.75L22.5 105.75L22.5 104.5L21.25 104.5L21.25 103.25L28.75 103.25L28.75 100.75L30 100.75L30 107ZM30 98.25L28.75 98.25L28.75 94.5L30 94.5L30 98.25ZM28.75 99.5L27.5 99.5L27.5 98.25L28.75 98.25L28.75 99.5ZM28.75 94.5L26.25 94.5L26.25 93.25L28.75 93.25L28.75 94.5ZM26.25 97L25 97L25 94.5L26.25 94.5L26.25 97ZM23.75 99.5L22.5 99.5L22.5 98.25L23.75 98.25L23.75 99.5ZM25 94.5L22.5 94.5L22.5 93.25L25 93.25L25 94.5ZM22.5 98.25L21.25 98.25L21.25 94.5L22.5 94.5L22.5 98.25Z" fill="#161616" fill-opacity="0.4"/>
</svg>
