<svg width="175" height="190" viewBox="0 0 175 190" fill="none" xmlns="http://www.w3.org/2000/svg">
<path d="M164.116 74.8952L106.821 18.4313L31.201 39.2808L11.0634 114.436L65.9484 170.971L143.978 150.05L164.116 74.8952Z" fill="#EEE1C2" stroke="#120800" stroke-width="4.61756"/>
<path d="M98.7543 48.5378L121.228 134.154M98.7543 48.5378L164.116 74.8952M98.7543 48.5378L106.821 18.4313M98.7543 48.5378L31.201 39.2808M98.7543 48.5378L36.9295 111.566M121.228 134.154L164.116 74.8952M121.228 134.154L36.9295 111.566M121.228 134.154L65.9484 170.971M121.228 134.154L143.978 150.05M164.116 74.8952L106.821 18.4313M164.116 74.8952L143.978 150.05M106.821 18.4313L31.201 39.2808M143.978 150.05L65.9484 170.971M65.9484 170.971L11.0634 114.436M65.9484 170.971L36.9295 111.566M11.0634 114.436L31.201 39.2808M11.0634 114.436L36.9295 111.566M31.201 39.2808L36.9295 111.566" stroke="#120800" stroke-width="4.61756"/>
<path d="M71.0353 103.319L71.6823 100.904L76.512 102.198L79.1002 92.5385L76.6853 91.8915L77.3324 89.4767L79.7472 90.1237L80.3943 87.7089L82.8091 88.356L78.9268 102.845L83.7564 104.139L83.1094 106.554L71.0353 103.319ZM85.5242 107.201L86.8183 102.371L89.2331 103.018L88.586 105.433L95.8305 107.374L96.4775 104.959L98.8923 105.606L97.5982 110.436L85.5242 107.201ZM89.2331 103.018L89.8801 100.603L92.2949 101.25L91.6479 103.665L89.2331 103.018ZM92.2949 101.25L92.942 98.8356L97.7716 100.13L97.1246 102.545L92.2949 101.25ZM88.7594 95.1267L89.4065 92.7119L91.8213 93.359L91.1742 95.7738L88.7594 95.1267ZM97.7716 100.13L99.0657 95.3001L101.481 95.9472L100.186 100.777L97.7716 100.13ZM91.8213 93.359L92.4683 90.9441L99.7128 92.8853L99.0657 95.3001L91.8213 93.359Z" fill="#120800"/>
<path d="M116.864 83.1764L121.693 81.8823L122.34 84.2971L119.925 84.9441L121.867 92.1886L124.281 91.5415L124.928 93.9564L120.099 95.2505L116.864 83.1764ZM122.34 84.2971L124.755 83.6501L125.402 86.0649L122.987 86.7119L122.34 84.2971ZM125.402 86.0649L127.817 85.4178L129.111 90.2474L126.696 90.8945L125.402 86.0649ZM128.938 79.9411L131.352 79.2941L132 81.7089L129.585 82.356L128.938 79.9411ZM129.111 90.2474L133.941 88.9534L134.588 91.3682L129.758 92.6623L129.111 90.2474ZM132 81.7089L134.414 81.0619L136.356 88.3063L133.941 88.9534L132 81.7089Z" fill="#161616" fill-opacity="0.4"/>
<path d="M82.6652 134.746L81.3711 139.576L78.9562 138.929L79.6033 136.514L72.3588 134.573L71.7118 136.987L69.297 136.34L70.5911 131.511L82.6652 134.746ZM78.9562 138.929L78.3092 141.343L75.8944 140.696L76.5414 138.281L78.9562 138.929ZM75.8944 140.696L75.2473 143.111L70.4177 141.817L71.0647 139.402L75.8944 140.696ZM79.4299 146.82L78.7829 149.235L76.3681 148.588L77.0151 146.173L79.4299 146.82ZM70.4177 141.817L69.1236 146.647L66.7088 146L68.0029 141.17L70.4177 141.817ZM76.3681 148.588L75.721 151.003L68.4766 149.061L69.1236 146.647L76.3681 148.588Z" fill="#161616" fill-opacity="0.4"/>
<path d="M57.9099 73.9808L56.1421 72.213L61.4454 66.9097L63.2132 68.6775L57.9099 73.9808ZM54.3744 73.9808L50.8388 70.4453L52.6066 68.6775L56.1421 72.213L54.3744 73.9808ZM61.4454 66.9097L57.9099 63.3742L59.6777 61.6064L63.2132 65.142L61.4454 66.9097ZM52.6066 68.6775L50.8388 66.9097L56.1421 61.6064L57.9099 63.3742L52.6066 68.6775ZM49.0711 68.6775L45.5355 65.142L47.3033 63.3742L50.8388 66.9097L49.0711 68.6775ZM56.1421 61.6064L52.6066 58.0709L54.3744 56.3031L57.9099 59.8387L56.1421 61.6064ZM47.3033 63.3742L45.5355 61.6064L50.8388 56.3031L52.6066 58.0709L47.3033 63.3742Z" fill="#161616" fill-opacity="0.4"/>
<path d="M109.083 44.2853L109.708 43.2027L112.955 45.0777L112.33 46.1603L109.083 44.2853ZM108.625 42.5777L109.25 41.4952L110.333 42.1202L109.708 43.2027L108.625 42.5777ZM112.955 45.0777L114.83 41.8301L115.913 42.4551L114.038 45.7027L112.955 45.0777ZM110.5 39.3301L112.375 36.0825L117.788 39.2075L117.163 40.2901L112.833 37.7901L112.208 38.8726L115.455 40.7476L114.83 41.8301L110.5 39.3301Z" fill="#161616" fill-opacity="0.4"/>
<path d="M80 41V39.75H82.5V34.75H81.25V33.5H82.5V32.25H83.75V39.75H86.25V41H80ZM88.75 41V39.75H92.5V41H88.75ZM87.5 39.75V38.5H88.75V39.75H87.5ZM92.5 39.75V36H93.75V39.75H92.5ZM87.5 36V32.25H93.75V33.5H88.75V34.75H92.5V36H87.5Z" fill="#161616" fill-opacity="0.4"/>
<path d="M136.232 122L137.315 122.625L136.065 124.79L140.395 127.29L141.02 126.208L142.102 126.833L141.477 127.915L142.56 128.54L141.935 129.623L135.44 125.873L134.19 128.038L133.107 127.413L136.232 122ZM131.857 129.578L132.94 130.203L131.065 133.45L129.982 132.825L131.857 129.578ZM133.565 129.12L135.73 130.37L135.105 131.453L132.94 130.203L133.565 129.12ZM131.065 133.45L133.23 134.7L132.605 135.783L130.44 134.533L131.065 133.45ZM135.105 131.453L136.187 132.078L134.312 135.325L133.23 134.7L135.105 131.453ZM136.812 130.995L138.977 132.245L138.352 133.328L136.187 132.078L136.812 130.995ZM134.312 135.325L136.477 136.575L135.852 137.658L133.687 136.408L134.312 135.325ZM138.352 133.328L139.435 133.953L137.56 137.2L136.477 136.575L138.352 133.328Z" fill="#161616" fill-opacity="0.4"/>
<path d="M123.014 145.61L123.639 146.693L122.556 147.318L121.931 146.235L123.014 145.61ZM122.556 147.318L123.181 148.4L122.099 149.025L121.474 147.943L122.556 147.318ZM117.266 143.155L118.516 145.32L122.846 142.82L124.096 144.985L123.014 145.61L122.389 144.528L119.141 146.403L121.016 149.65L122.099 149.025L122.724 150.108L120.559 151.358L116.184 143.78L117.266 143.155Z" fill="#161616" fill-opacity="0.4"/>
<path d="M35.4063 122.037L34.1989 122.361L33.2283 118.739L34.4357 118.415L35.4063 122.037ZM33.2283 118.739L30.8135 119.386L30.49 118.178L32.9048 117.531L33.2283 118.739ZM34.5224 123.568L29.6928 124.862L29.3693 123.655L30.5767 123.332L29.6061 119.709L30.8135 119.386L31.7841 123.008L34.1989 122.361L34.5224 123.568ZM29.3693 123.655L28.1618 123.979L27.8383 122.771L29.0457 122.448L29.3693 123.655ZM27.8383 122.771L26.6309 123.095L25.9839 120.68L27.1913 120.356L27.8383 122.771Z" fill="#161616" fill-opacity="0.4"/>
<path d="M30 107L28.75 107L28.75 104.5L23.75 104.5L23.75 105.75L22.5 105.75L22.5 104.5L21.25 104.5L21.25 103.25L28.75 103.25L28.75 100.75L30 100.75L30 107ZM30 98.25L28.75 98.25L28.75 94.5L30 94.5L30 98.25ZM28.75 94.5L26.25 94.5L26.25 93.25L28.75 93.25L28.75 94.5ZM28.75 99.5L23.75 99.5L23.75 98.25L25 98.25L25 94.5L26.25 94.5L26.25 98.25L28.75 98.25L28.75 99.5ZM23.75 98.25L22.5 98.25L22.5 97L23.75 97L23.75 98.25ZM22.5 97L21.25 97L21.25 94.5L22.5 94.5L22.5 97Z" fill="#161616" fill-opacity="0.4"/>
</svg>
