<svg width="175" height="190" viewBox="0 0 175 190" fill="none" xmlns="http://www.w3.org/2000/svg">
<path d="M164.116 74.8952L106.821 18.4313L31.201 39.2808L11.0634 114.436L65.9484 170.971L143.978 150.05L164.116 74.8952Z" fill="#EEE1C2" stroke="#120800" stroke-width="4.61756"/>
<path d="M98.7543 48.5378L121.228 134.154M98.7543 48.5378L164.116 74.8952M98.7543 48.5378L106.821 18.4313M98.7543 48.5378L31.201 39.2808M98.7543 48.5378L36.9295 111.566M121.228 134.154L164.116 74.8952M121.228 134.154L36.9295 111.566M121.228 134.154L65.9484 170.971M121.228 134.154L143.978 150.05M164.116 74.8952L106.821 18.4313M164.116 74.8952L143.978 150.05M106.821 18.4313L31.201 39.2808M143.978 150.05L65.9484 170.971M65.9484 170.971L11.0634 114.436M65.9484 170.971L36.9295 111.566M11.0634 114.436L31.201 39.2808M11.0634 114.436L36.9295 111.566M31.201 39.2808L36.9295 111.566" stroke="#120800" stroke-width="4.61756"/>
<path d="M71.0353 103.319L71.6823 100.904L76.512 102.198L79.1002 92.5385L76.6853 91.8915L77.3324 89.4767L79.7472 90.1237L80.3943 87.7089L82.8091 88.356L78.9268 102.845L83.7564 104.139L83.1094 106.554L71.0353 103.319ZM87.939 107.848L88.586 105.433L95.8305 107.374L95.1834 109.789L87.939 107.848ZM92.2949 101.25L92.942 98.8356L95.3568 99.4827L94.7098 101.898L92.2949 101.25ZM86.1712 104.786L89.4065 92.7119L91.8213 93.359L89.8801 100.603L92.2949 101.25L91.6479 103.665L89.2331 103.018L88.586 105.433L86.1712 104.786ZM95.8305 107.374L97.7716 100.13L95.3568 99.4827L96.0039 97.0679L98.4187 97.7149L99.0657 95.3001L101.481 95.9472L98.2453 108.021L95.8305 107.374ZM91.8213 93.359L92.4683 90.9441L99.7128 92.8853L99.0657 95.3001L91.8213 93.359Z" fill="#120800"/>
<path d="M114.864 75.1764L117.278 74.5293L118.573 79.359L128.232 76.7708L127.585 74.356L130 73.7089L130.647 76.1237L133.061 75.4767L133.708 77.8915L119.22 81.7738L120.514 86.6034L118.099 87.2505L114.864 75.1764ZM120.04 94.4949L127.284 92.5538L127.931 94.9686L120.687 96.9097L120.04 94.4949ZM127.931 94.9686L130.346 94.3215L130.993 96.7363L128.579 97.3834L127.931 94.9686ZM130.993 96.7363L135.823 95.4422L133.882 88.1978L131.467 88.8448L130.82 86.43L135.65 85.1359L138.885 97.21L131.64 99.1512L130.993 96.7363Z" fill="#161616" fill-opacity="0.4"/>
<path d="M80.2503 134.099L79.6033 136.514L72.3588 134.573L73.0059 132.158L80.2503 134.099ZM82.0181 137.161L81.3711 139.576L78.9562 138.929L79.6033 136.514L82.0181 137.161ZM72.3588 134.573L71.0647 139.402L68.6499 138.755L69.944 133.926L72.3588 134.573ZM75.8944 140.696L75.2473 143.111L70.4177 141.817L71.0647 139.402L75.8944 140.696ZM79.4299 146.82L78.7829 149.235L76.3681 148.588L77.0151 146.173L79.4299 146.82ZM70.4177 141.817L69.1236 146.647L66.7088 146L68.0029 141.17L70.4177 141.817ZM76.3681 148.588L75.721 151.003L68.4766 149.061L69.1236 146.647L76.3681 148.588Z" fill="#161616" fill-opacity="0.4"/>
<path d="M57.9099 73.9808L56.1421 72.213L61.4454 66.9097L63.2132 68.6775L57.9099 73.9808ZM54.3744 73.9808L50.8388 70.4453L52.6066 68.6775L56.1421 72.213L54.3744 73.9808ZM61.4454 66.9097L57.9099 63.3742L59.6777 61.6064L63.2132 65.142L61.4454 66.9097ZM52.6066 68.6775L50.8388 66.9097L56.1421 61.6064L57.9099 63.3742L52.6066 68.6775ZM49.0711 68.6775L45.5355 65.142L47.3033 63.3742L50.8388 66.9097L49.0711 68.6775ZM56.1421 61.6064L52.6066 58.0709L54.3744 56.3031L57.9099 59.8387L56.1421 61.6064ZM47.3033 63.3742L45.5355 61.6064L50.8388 56.3031L52.6066 58.0709L47.3033 63.3742Z" fill="#161616" fill-opacity="0.4"/>
<path d="M107.606 45.5831L108.856 43.418L109.939 44.043L109.314 45.1256L112.561 47.0006L113.186 45.918L114.269 46.543L113.019 48.7081L107.606 45.5831ZM109.939 44.043L110.564 42.9605L111.646 43.5855L111.021 44.668L109.939 44.043ZM111.646 43.5855L112.271 42.503L114.436 43.753L113.811 44.8355L111.646 43.5855ZM110.731 40.1704L111.356 39.0879L112.439 39.7129L111.814 40.7954L110.731 40.1704ZM114.436 43.753L115.686 41.5879L116.769 42.2129L115.519 44.378L114.436 43.753ZM112.439 39.7129L113.064 38.6304L116.311 40.5054L115.686 41.5879L112.439 39.7129Z" fill="#161616" fill-opacity="0.4"/>
<path d="M83 41V39.75H85.5V34.75H84.25V33.5H85.5V32.25H86.75V39.75H89.25V41H83ZM90.5 41V39.75H93V34.75H91.75V33.5H93V32.25H94.25V39.75H96.75V41H90.5Z" fill="#161616" fill-opacity="0.4"/>
<path d="M137.232 121L138.315 121.625L137.065 123.79L141.395 126.29L142.02 125.208L143.102 125.833L142.477 126.915L143.56 127.54L142.935 128.623L136.44 124.873L135.19 127.038L134.107 126.413L137.232 121ZM132.857 128.578L133.94 129.203L132.065 132.45L130.982 131.825L132.857 128.578ZM134.565 128.12L136.73 129.37L136.105 130.453L133.94 129.203L134.565 128.12ZM132.065 132.45L134.23 133.7L133.605 134.783L131.44 133.533L132.065 132.45ZM136.105 130.453L137.187 131.078L135.312 134.325L134.23 133.7L136.105 130.453ZM137.812 129.995L139.977 131.245L139.352 132.328L137.187 131.078L137.812 129.995ZM135.312 134.325L137.477 135.575L136.852 136.658L134.687 135.408L135.312 134.325ZM139.352 132.328L140.435 132.953L138.56 136.2L137.477 135.575L139.352 132.328Z" fill="#161616" fill-opacity="0.4"/>
<path d="M123.014 145.61L123.639 146.693L122.556 147.318L121.931 146.235L123.014 145.61ZM122.556 147.318L123.181 148.4L122.099 149.025L121.474 147.943L122.556 147.318ZM117.266 143.155L118.516 145.32L122.846 142.82L124.096 144.985L123.014 145.61L122.389 144.528L119.141 146.403L121.016 149.65L122.099 149.025L122.724 150.108L120.559 151.358L116.184 143.78L117.266 143.155Z" fill="#161616" fill-opacity="0.4"/>
<path d="M35.4063 122.037L34.1989 122.361L33.2283 118.739L34.4357 118.415L35.4063 122.037ZM33.2283 118.739L30.8135 119.386L30.49 118.178L32.9048 117.531L33.2283 118.739ZM34.5224 123.568L29.6928 124.862L29.3693 123.655L30.5767 123.332L29.6061 119.709L30.8135 119.386L31.7841 123.008L34.1989 122.361L34.5224 123.568ZM29.3693 123.655L28.1618 123.979L27.8383 122.771L29.0457 122.448L29.3693 123.655ZM27.8383 122.771L26.6309 123.095L25.9839 120.68L27.1913 120.356L27.8383 122.771Z" fill="#161616" fill-opacity="0.4"/>
<path d="M30 107L28.75 107L28.75 104.5L23.75 104.5L23.75 105.75L22.5 105.75L22.5 104.5L21.25 104.5L21.25 103.25L28.75 103.25L28.75 100.75L30 100.75L30 107ZM30 98.25L28.75 98.25L28.75 94.5L30 94.5L30 98.25ZM28.75 94.5L26.25 94.5L26.25 93.25L28.75 93.25L28.75 94.5ZM28.75 99.5L23.75 99.5L23.75 98.25L25 98.25L25 94.5L26.25 94.5L26.25 98.25L28.75 98.25L28.75 99.5ZM23.75 98.25L22.5 98.25L22.5 97L23.75 97L23.75 98.25ZM22.5 97L21.25 97L21.25 94.5L22.5 94.5L22.5 97Z" fill="#161616" fill-opacity="0.4"/>
</svg>
