<svg width="175" height="190" viewBox="0 0 175 190" fill="none" xmlns="http://www.w3.org/2000/svg">
<path d="M164.116 74.8952L106.821 18.4313L31.201 39.2808L11.0634 114.436L65.9484 170.971L143.978 150.05L164.116 74.8952Z" fill="#EEE1C2" stroke="#120800" stroke-width="4.61756"/>
<path d="M98.7543 48.5378L121.228 134.154M98.7543 48.5378L164.116 74.8952M98.7543 48.5378L106.821 18.4313M98.7543 48.5378L31.201 39.2808M98.7543 48.5378L36.9295 111.566M121.228 134.154L164.116 74.8952M121.228 134.154L36.9295 111.566M121.228 134.154L65.9484 170.971M121.228 134.154L143.978 150.05M164.116 74.8952L106.821 18.4313M164.116 74.8952L143.978 150.05M106.821 18.4313L31.201 39.2808M143.978 150.05L65.9484 170.971M65.9484 170.971L11.0634 114.436M65.9484 170.971L36.9295 111.566M11.0634 114.436L31.201 39.2808M11.0634 114.436L36.9295 111.566M31.201 39.2808L36.9295 111.566" stroke="#120800" stroke-width="4.61756"/>
<path d="M79.4501 105.966L80.0972 103.551L87.3416 105.492L86.6945 107.907L79.4501 105.966ZM87.3416 105.492L88.6357 100.662L91.0505 101.309L89.7564 106.139L87.3416 105.492ZM77.6823 102.904L80.2705 93.2444L82.6853 93.8915L82.0383 96.3063L89.2827 98.2474L88.6357 100.662L81.3912 98.7211L80.0972 103.551L77.6823 102.904ZM82.6853 93.8915L83.3324 91.4767L85.7472 92.1237L85.1002 94.5385L82.6853 93.8915ZM85.7472 92.1237L86.3943 89.7089L91.2239 91.003L90.5768 93.4178L85.7472 92.1237Z" fill="#120800"/>
<path d="M118.511 85.5912L120.925 84.9441L122.867 92.1886L120.452 92.8356L118.511 85.5912ZM120.278 82.5293L122.693 81.8823L123.34 84.2971L120.925 84.9441L120.278 82.5293ZM122.867 92.1886L127.696 90.8945L128.343 93.3093L123.514 94.6034L122.867 92.1886ZM126.402 86.0649L128.817 85.4178L130.111 90.2474L127.696 90.8945L126.402 86.0649ZM129.938 79.9411L132.352 79.2941L133 81.7089L130.585 82.356L129.938 79.9411ZM130.111 90.2474L134.941 88.9534L135.588 91.3682L130.758 92.6623L130.111 90.2474ZM133 81.7089L135.414 81.0619L137.356 88.3063L134.941 88.9534L133 81.7089Z" fill="#161616" fill-opacity="0.4"/>
<path d="M89.1542 136.629L88.5071 139.044L83.6775 137.749L81.0893 147.409L83.5041 148.056L82.8571 150.471L80.4422 149.824L79.7952 152.238L77.3804 151.591L81.2627 137.102L76.433 135.808L77.0801 133.394L89.1542 136.629ZM74.6653 132.746L73.3712 137.576L70.9564 136.929L71.6034 134.514L64.359 132.573L63.7119 134.988L61.2971 134.341L62.5912 129.511L74.6653 132.746ZM70.9564 136.929L70.3093 139.344L67.8945 138.697L68.5416 136.282L70.9564 136.929ZM67.8945 138.697L67.2475 141.112L62.4178 139.818L63.0649 137.403L67.8945 138.697ZM71.43 144.821L70.783 147.235L68.3682 146.588L69.0152 144.173L71.43 144.821ZM62.4178 139.818L61.1237 144.647L58.7089 144L60.003 139.17L62.4178 139.818ZM68.3682 146.588L67.7211 149.003L60.4767 147.062L61.1237 144.647L68.3682 146.588Z" fill="#161616" fill-opacity="0.4"/>
<path d="M56.9099 73.9808L55.1421 72.213L60.4454 66.9097L62.2132 68.6775L56.9099 73.9808ZM53.3744 73.9808L51.6066 72.213L53.3744 70.4453L55.1421 72.213L53.3744 73.9808ZM60.4454 66.9097L55.1421 61.6064L56.9099 59.8387L62.2132 65.142L60.4454 66.9097ZM48.0711 68.6775L42.7678 63.3742L51.6066 54.5354L53.3744 56.3031L46.3033 63.3742L48.0711 65.142L53.3744 59.8387L55.1421 61.6064L48.0711 68.6775Z" fill="#161616" fill-opacity="0.4"/>
<path d="M107.606 45.5831L108.231 44.5006L110.396 45.7506L112.896 41.4204L111.814 40.7954L112.439 39.7129L113.521 40.3379L114.146 39.2554L115.229 39.8804L111.479 46.3756L113.644 47.6256L113.019 48.7081L107.606 45.5831ZM116.266 50.5831L118.141 47.3355L119.224 47.9605L117.349 51.2081L116.266 50.5831ZM119.224 47.9605L119.849 46.878L120.932 47.503L120.307 48.5855L119.224 47.9605ZM120.932 47.503L122.182 45.3379L118.934 43.4629L118.309 44.5454L117.226 43.9204L118.476 41.7554L123.889 44.8804L122.014 48.128L120.932 47.503Z" fill="#161616" fill-opacity="0.4"/>
<path d="M77.6062 40.9229V39.6729H80.1062V34.6729H78.8562V33.4229H80.1062V32.1729H81.3562V39.6729H83.8562V40.9229H77.6062ZM86.3562 40.9229V39.6729H90.1062V40.9229H86.3562ZM87.6062 37.1729V35.9229H88.8562V37.1729H87.6062ZM85.1062 39.6729V33.4229H86.3562V37.1729H87.6062V38.4229H86.3562V39.6729H85.1062ZM90.1062 39.6729V35.9229H88.8562V34.6729H90.1062V33.4229H91.3562V39.6729H90.1062ZM86.3562 33.4229V32.1729H90.1062V33.4229H86.3562Z" fill="#161616" fill-opacity="0.4"/>
<path d="M137.232 121L138.315 121.625L137.065 123.79L141.395 126.29L142.02 125.208L143.102 125.833L142.477 126.915L143.56 127.54L142.935 128.623L136.44 124.873L135.19 127.038L134.107 126.413L137.232 121ZM132.857 128.578L133.94 129.203L132.69 131.368L131.607 130.743L132.857 128.578ZM132.69 131.368L133.772 131.993L133.147 133.075L132.065 132.45L132.69 131.368ZM137.812 129.995L139.977 131.245L139.352 132.328L137.187 131.078L137.812 129.995ZM133.147 133.075L134.23 133.7L136.105 130.453L137.187 131.078L135.312 134.325L137.477 135.575L136.852 136.658L132.522 134.158L133.147 133.075ZM139.352 132.328L140.435 132.953L138.56 136.2L137.477 135.575L139.352 132.328Z" fill="#161616" fill-opacity="0.4"/>
<path d="M123.014 145.61L123.639 146.693L122.556 147.318L121.931 146.235L123.014 145.61ZM122.556 147.318L123.181 148.4L122.099 149.025L121.474 147.943L122.556 147.318ZM117.266 143.155L118.516 145.32L122.846 142.82L124.096 144.985L123.014 145.61L122.389 144.528L119.141 146.403L121.016 149.65L122.099 149.025L122.724 150.108L120.559 151.358L116.184 143.78L117.266 143.155Z" fill="#161616" fill-opacity="0.4"/>
<path d="M37.0125 123.96L35.8051 124.284L34.8345 120.662L36.0419 120.338L37.0125 123.96ZM34.8345 120.662L32.4197 121.309L32.0962 120.101L34.511 119.454L34.8345 120.662ZM36.1286 125.491L31.299 126.785L30.9755 125.578L32.1829 125.254L31.2123 121.632L32.4197 121.309L33.3903 124.931L35.8051 124.284L36.1286 125.491ZM30.9755 125.578L29.768 125.901L29.4445 124.694L30.6519 124.37L30.9755 125.578ZM29.4445 124.694L28.2371 125.018L27.5901 122.603L28.7975 122.279L29.4445 124.694Z" fill="#161616" fill-opacity="0.4"/>
<path d="M30 107L28.75 107L28.75 104.5L23.75 104.5L23.75 105.75L22.5 105.75L22.5 104.5L21.25 104.5L21.25 103.25L28.75 103.25L28.75 100.75L30 100.75L30 107ZM30 98.25L28.75 98.25L28.75 94.5L30 94.5L30 98.25ZM28.75 94.5L26.25 94.5L26.25 93.25L28.75 93.25L28.75 94.5ZM28.75 99.5L23.75 99.5L23.75 98.25L25 98.25L25 94.5L26.25 94.5L26.25 98.25L28.75 98.25L28.75 99.5ZM23.75 98.25L22.5 98.25L22.5 97L23.75 97L23.75 98.25ZM22.5 97L21.25 97L21.25 94.5L22.5 94.5L22.5 97Z" fill="#161616" fill-opacity="0.4"/>
</svg>
