<svg width="175" height="190" viewBox="0 0 175 190" fill="none" xmlns="http://www.w3.org/2000/svg">
<path d="M164.116 74.8952L106.821 18.4313L31.201 39.2808L11.0634 114.436L65.9484 170.971L143.978 150.05L164.116 74.8952Z" fill="#EEE1C2" stroke="#120800" stroke-width="4.61756"/>
<path d="M98.7543 48.5378L121.228 134.154M98.7543 48.5378L164.116 74.8952M98.7543 48.5378L106.821 18.4313M98.7543 48.5378L31.201 39.2808M98.7543 48.5378L36.9295 111.566M121.228 134.154L164.116 74.8952M121.228 134.154L36.9295 111.566M121.228 134.154L65.9484 170.971M121.228 134.154L143.978 150.05M164.116 74.8952L106.821 18.4313M164.116 74.8952L143.978 150.05M106.821 18.4313L31.201 39.2808M143.978 150.05L65.9484 170.971M65.9484 170.971L11.0634 114.436M65.9484 170.971L36.9295 111.566M11.0634 114.436L31.201 39.2808M11.0634 114.436L36.9295 111.566M31.201 39.2808L36.9295 111.566" stroke="#120800" stroke-width="4.61756"/>
<path d="M81.8649 106.613L83.8061 99.3682L86.2209 100.015L84.2797 107.26L81.8649 106.613ZM86.2209 100.015L86.8679 97.6004L89.2827 98.2474L88.6357 100.662L86.2209 100.015ZM89.2827 98.2474L90.5768 93.4178L83.3324 91.4767L82.6853 93.8915L80.2705 93.2444L81.5646 88.4148L93.6387 91.6501L91.6976 98.8945L89.2827 98.2474Z" fill="#120800"/>
<path d="M117.864 83.1764L120.278 82.5293L121.573 87.359L131.232 84.7708L130.585 82.356L133 81.7089L133.647 84.1237L136.061 83.4767L136.708 85.8915L122.22 89.7738L123.514 94.6034L121.099 95.2505L117.864 83.1764Z" fill="#161616" fill-opacity="0.4"/>
<path d="M91.1542 136.629L90.5071 139.044L85.6775 137.749L83.0893 147.409L85.5041 148.056L84.8571 150.471L82.4422 149.824L81.7952 152.238L79.3804 151.591L83.2627 137.102L78.433 135.808L79.0801 133.394L91.1542 136.629ZM74.2505 132.099L73.6034 134.514L66.359 132.573L67.006 130.158L74.2505 132.099ZM76.0182 135.161L75.3712 137.576L72.9564 136.929L73.6034 134.514L76.0182 135.161ZM66.359 132.573L64.4178 139.818L62.003 139.17L63.9442 131.926L66.359 132.573ZM74.0771 142.406L72.1359 149.65L60.0619 146.415L60.7089 144L70.3682 146.588L71.0152 144.173L63.7708 142.232L64.4178 139.818L74.0771 142.406Z" fill="#161616" fill-opacity="0.4"/>
<path d="M52.1421 81.355L50.3744 79.5873L53.9099 76.0517L46.8388 68.9807L45.0711 70.7484L43.3033 68.9807L45.0711 67.2129L43.3033 65.4451L45.0711 63.6774L55.6777 74.284L59.2132 70.7484L60.981 72.5162L52.1421 81.355ZM66.2843 67.2129L60.981 61.9096L62.7487 60.1418L68.052 65.4451L66.2843 67.2129ZM62.7487 60.1418L60.981 58.3741L62.7487 56.6063L64.5165 58.3741L62.7487 60.1418ZM62.7487 56.6063L59.2132 53.0708L53.9099 58.3741L55.6777 60.1418L53.9099 61.9096L50.3744 58.3741L59.2132 49.5352L64.5165 54.8385L62.7487 56.6063Z" fill="#161616" fill-opacity="0.4"/>
<path d="M107.606 45.5831L108.231 44.5006L110.396 45.7506L112.896 41.4204L111.814 40.7954L112.439 39.7129L113.521 40.3379L114.146 39.2554L115.229 39.8804L111.479 46.3756L113.644 47.6256L113.019 48.7081L107.606 45.5831ZM115.184 49.9581L115.809 48.8756L117.974 50.1256L117.349 51.2081L115.184 49.9581ZM117.974 50.1256L118.599 49.043L119.682 49.668L119.057 50.7506L117.974 50.1256ZM116.601 45.003L117.851 42.8379L118.934 43.4629L117.684 45.628L116.601 45.003ZM119.682 49.668L120.307 48.5855L117.059 46.7105L117.684 45.628L120.932 47.503L122.182 45.3379L123.264 45.9629L120.764 50.293L119.682 49.668ZM118.934 43.4629L119.559 42.3804L122.807 44.2554L122.182 45.3379L118.934 43.4629Z" fill="#161616" fill-opacity="0.4"/>
<path d="M77.6062 40.9229V39.6729H80.1062V34.6729H78.8562V33.4229H80.1062V32.1729H81.3562V39.6729H83.8562V40.9229H77.6062ZM86.3562 40.9229V39.6729H90.1062V40.9229H86.3562ZM87.6062 37.1729V35.9229H88.8562V37.1729H87.6062ZM85.1062 39.6729V33.4229H86.3562V37.1729H87.6062V38.4229H86.3562V39.6729H85.1062ZM90.1062 39.6729V35.9229H88.8562V34.6729H90.1062V33.4229H91.3562V39.6729H90.1062ZM86.3562 33.4229V32.1729H90.1062V33.4229H86.3562Z" fill="#161616" fill-opacity="0.4"/>
<path d="M137.232 121L138.315 121.625L137.065 123.79L141.395 126.29L142.02 125.208L143.102 125.833L142.477 126.915L143.56 127.54L142.935 128.623L136.44 124.873L135.19 127.038L134.107 126.413L137.232 121ZM132.857 128.578L133.94 129.203L132.065 132.45L130.982 131.825L132.857 128.578ZM134.565 128.12L135.647 128.745L135.022 129.828L133.94 129.203L134.565 128.12ZM132.065 132.45L134.23 133.7L133.605 134.783L131.44 133.533L132.065 132.45ZM135.48 131.535L136.562 132.16L135.312 134.325L134.23 133.7L135.48 131.535ZM138.895 130.62L139.977 131.245L139.352 132.328L138.27 131.703L138.895 130.62ZM135.312 134.325L137.477 135.575L136.852 136.658L134.687 135.408L135.312 134.325ZM139.352 132.328L140.435 132.953L138.56 136.2L137.477 135.575L139.352 132.328Z" fill="#161616" fill-opacity="0.4"/>
<path d="M123.014 145.61L123.639 146.693L122.556 147.318L121.931 146.235L123.014 145.61ZM122.556 147.318L123.181 148.4L122.099 149.025L121.474 147.943L122.556 147.318ZM117.266 143.155L118.516 145.32L122.846 142.82L124.096 144.985L123.014 145.61L122.389 144.528L119.141 146.403L121.016 149.65L122.099 149.025L122.724 150.108L120.559 151.358L116.184 143.78L117.266 143.155Z" fill="#161616" fill-opacity="0.4"/>
<path d="M37.0125 123.96L35.8051 124.284L34.8345 120.662L36.0419 120.338L37.0125 123.96ZM34.8345 120.662L32.4197 121.309L32.0962 120.101L34.511 119.454L34.8345 120.662ZM36.1286 125.491L31.299 126.785L30.9755 125.578L32.1829 125.254L31.2123 121.632L32.4197 121.309L33.3903 124.931L35.8051 124.284L36.1286 125.491ZM30.9755 125.578L29.768 125.901L29.4445 124.694L30.6519 124.37L30.9755 125.578ZM29.4445 124.694L28.2371 125.018L27.5901 122.603L28.7975 122.279L29.4445 124.694Z" fill="#161616" fill-opacity="0.4"/>
<path d="M30 105.75L28.75 105.75L28.75 102L30 102L30 105.75ZM28.75 107L26.25 107L26.25 105.75L28.75 105.75L28.75 107ZM28.75 102L26.25 102L26.25 100.75L28.75 100.75L28.75 102ZM26.25 105.75L25 105.75L25 102L26.25 102L26.25 105.75ZM25 107L22.5 107L22.5 105.75L25 105.75L25 107ZM25 102L22.5 102L22.5 100.75L25 100.75L25 102ZM22.5 105.75L21.25 105.75L21.25 102L22.5 102L22.5 105.75Z" fill="#161616" fill-opacity="0.4"/>
</svg>
