<svg width="116" height="16" viewBox="0 0 116 16" fill="none" xmlns="http://www.w3.org/2000/svg">
<path d="M15.3332 4V7.33333H14.6665V8H13.9998V8.66667H13.3332V9.33333H12.6665V10H11.9998V10.6667H11.3332V11.3333H10.6665V12H9.99984V12.6667H9.33317V13.3333H8.6665V14H7.33317V13.3333H6.6665V12.6667H5.99984V12H5.33317V11.3333H4.6665V10.6667H3.99984V10H3.33317V9.33333H2.6665V8.66667H1.99984V8H1.33317V7.33333H0.666504V4H1.33317V3.33333H1.99984V2.66667H2.6665V2H6.6665V2.66667H7.33317V3.33333H8.6665V2.66667H9.33317V2H13.3332V2.66667H13.9998V3.33333H14.6665V4H15.3332Z" fill="#B3261E"/>
<path d="M35.3332 4V7.33333H34.6665V8H33.9998V8.66667H33.3332V9.33333H32.6665V10H31.9998V10.6667H31.3332V11.3333H30.6665V12H29.9998V12.6667H29.3332V13.3333H28.6665V14H27.3332V13.3333H26.6665V12.6667H25.9998V12H25.3332V11.3333H24.6665V10.6667H23.9998V10H23.3332V9.33333H22.6665V8.66667H21.9998V8H21.3332V7.33333H20.6665V4H21.3332V3.33333H21.9998V2.66667H22.6665V2H26.6665V2.66667H27.3332V3.33333H28.6665V2.66667H29.3332V2H33.3332V2.66667H33.9998V3.33333H34.6665V4H35.3332Z" fill="#B3261E"/>
<path d="M55.3332 4V7.33333H54.6665V8H53.9998V8.66667H53.3332V9.33333H52.6665V10H51.9998V10.6667H51.3332V11.3333H50.6665V12H49.9998V12.6667H49.3332V13.3333H48.6665V14H47.3332V13.3333H46.6665V12.6667H45.9998V12H45.3332V11.3333H44.6665V10.6667H43.9998V10H43.3332V9.33333H42.6665V8.66667H41.9998V8H41.3332V7.33333H40.6665V4H41.3332V3.33333H41.9998V2.66667H42.6665V2H46.6665V2.66667H47.3332V3.33333H48.6665V2.66667H49.3332V2H53.3332V2.66667H53.9998V3.33333H54.6665V4H55.3332Z" fill="#B3261E"/>
<path d="M75.3332 4V7.33333H74.6665V8H73.9998V8.66667H73.3332V9.33333H72.6665V10H71.9998V10.6667H71.3332V11.3333H70.6665V12H69.9998V12.6667H69.3332V13.3333H68.6665V14H67.3332V13.3333H66.6665V12.6667H65.9998V12H65.3332V11.3333H64.6665V10.6667H63.9998V10H63.3332V9.33333H62.6665V8.66667H61.9998V8H61.3332V7.33333H60.6665V4H61.3332V3.33333H61.9998V2.66667H62.6665V2H66.6665V2.66667H67.3332V3.33333H68.6665V2.66667H69.3332V2H73.3332V2.66667H73.9998V3.33333H74.6665V4H75.3332Z" fill="#B3261E"/>
<path d="M95.3332 4V7.33333H94.6665V8H93.9998V8.66667H93.3332V9.33333H92.6665V10H91.9998V10.6667H91.3332V11.3333H90.6665V12H89.9998V12.6667H89.3332V13.3333H88.6665V14H87.3332V13.3333H86.6665V12.6667H85.9998V12H85.3332V11.3333H84.6665V10.6667H83.9998V10H83.3332V9.33333H82.6665V8.66667H81.9998V8H81.3332V7.33333H80.6665V4H81.3332V3.33333H81.9998V2.66667H82.6665V2H86.6665V2.66667H87.3332V3.33333H88.6665V2.66667H89.3332V2H93.3332V2.66667H93.9998V3.33333H94.6665V4H95.3332Z" fill="#B3261E"/>
<path d="M115.333 4V7.33333H114.667V8H114V8.66667H113.333V9.33333H112.667V10H112V10.6667H111.333V11.3333H110.667V12H110V12.6667H109.333V13.3333H108.667V14H107.333V13.3333H106.667V12.6667H106V12H105.333V11.3333H104.667V10.6667H104V10H103.333V9.33333H102.667V8.66667H102V8H101.333V7.33333H100.667V4H101.333V3.33333H102V2.66667H102.667V2H106.667V2.66667H107.333V3.33333H108.667V2.66667H109.333V2H113.333V2.66667H114V3.33333H114.667V4H115.333Z" fill="#B3261E"/>
</svg>
