<svg width="159" height="159" viewBox="0 0 159 159" fill="none" xmlns="http://www.w3.org/2000/svg">
<path d="M90.7548 33.5379L113.228 119.154M90.7548 33.5379L156.116 59.8953M90.7548 33.5379L98.8218 3.43138M90.7548 33.5379L23.2015 24.2809M90.7548 33.5379L28.93 96.5666M113.228 119.154L156.116 59.8953M113.228 119.154L28.93 96.5666M113.228 119.154L57.9489 155.971M113.228 119.154L135.979 135.05M156.116 59.8953L98.8218 3.43138M156.116 59.8953L135.979 135.05M98.8218 3.43138L23.2015 24.2809M135.979 135.05L57.9489 155.971M57.9489 155.971L3.06386 99.4357M57.9489 155.971L28.93 96.5666M3.06386 99.4357L23.2015 24.2809M3.06386 99.4357L28.93 96.5666M23.2015 24.2809L28.93 96.5666" stroke="#120800" stroke-width="4.61756"/>
</svg>
