<svg width="20" height="20" viewBox="0 0 20 20" fill="none" xmlns="http://www.w3.org/2000/svg">
<g clip-path="url(#clip0_13103_416)">
<path d="M14.1668 8.33331V11.6666H13.3335V12.5H12.5002V13.3333H11.6668V14.1666H8.3335V13.3333H7.50016V12.5H6.66683V11.6666H5.8335V8.33331H6.66683V7.49998H7.50016V6.66665H8.3335V5.83331H11.6668V6.66665H12.5002V7.49998H13.3335V8.33331H14.1668Z" fill="#EEE1C2"/>
<path d="M17.5002 9.16665V8.33331H18.3335V7.49998H19.1668V5.83331H16.6668V4.99998H15.0002V3.33331H14.1668V0.833313H12.5002V1.66665H11.6668V2.49998H10.8335V3.33331H9.16683V2.49998H8.3335V1.66665H7.50016V0.833313H5.8335V3.33331H5.00016V4.99998H3.3335V5.83331H0.833496V7.49998H1.66683V8.33331H2.50016V9.16665H3.3335V10.8333H2.50016V11.6666H1.66683V12.5H0.833496V14.1666H3.3335V15H5.00016V16.6666H5.8335V19.1666H7.50016V18.3333H8.3335V17.5H9.16683V16.6666H10.8335V17.5H11.6668V18.3333H12.5002V19.1666H14.1668V16.6666H15.0002V15H16.6668V14.1666H19.1668V12.5H18.3335V11.6666H17.5002V10.8333H16.6668V9.16665H17.5002ZM15.0002 12.5H14.1668V13.3333H13.3335V14.1666H12.5002V15H7.50016V14.1666H6.66683V13.3333H5.8335V12.5H5.00016V7.49998H5.8335V6.66665H6.66683V5.83331H7.50016V4.99998H12.5002V5.83331H13.3335V6.66665H14.1668V7.49998H15.0002V12.5Z" fill="#EEE1C2"/>
</g>
<defs>
<clipPath id="clip0_13103_416">
<rect width="20" height="20" fill="white"/>
</clipPath>
</defs>
</svg>
